<svg width="45" height="39" viewBox="0 0 45 39" fill="none" xmlns="http://www.w3.org/2000/svg">
<g clip-path="url(#clip0_289_4039)">
<path d="M21.651 17.4455C21.9033 17.4405 22.1211 17.2675 22.184 17.0232C22.2466 16.7787 22.1388 16.5224 21.9202 16.3964L20.8694 15.8217L22.0168 15.2665H22.0166C22.2881 15.1285 22.3991 14.7986 22.2666 14.5244C22.1339 14.2504 21.8065 14.1328 21.5297 14.2599L19.6647 15.1627L17.8485 14.1693C18.0042 13.6869 18.0067 13.1679 17.8555 12.6838L19.6804 11.7058C19.8039 11.7402 21.6874 12.7626 21.7837 12.6817H21.784C22.0403 12.6762 22.2606 12.4978 22.3193 12.248C22.3777 11.9982 22.2596 11.7404 22.0323 11.6217L20.8909 11.057L21.9457 10.4915V10.4918C22.217 10.3455 22.3188 10.0072 22.1733 9.73565C22.0278 9.4639 21.6899 9.36109 21.418 9.50582L20.3642 10.0708L20.5261 8.81038C20.5588 8.50794 20.3437 8.2347 20.042 8.19602C19.7401 8.15709 19.4626 8.36646 19.4177 8.6674L19.1537 10.7196L17.3268 11.699C16.9507 11.2506 16.4369 10.939 15.8652 10.8127V8.75172L17.5501 7.54997C17.7944 7.3683 17.8483 7.02469 17.6716 6.77687C17.4949 6.52908 17.1526 6.46794 16.9011 6.63963L15.8652 7.37849V6.18421C15.8592 5.88002 15.6107 5.63647 15.3063 5.63647C15.0018 5.63647 14.7535 5.88002 14.7473 6.18421V7.37823L13.7114 6.63937L13.7117 6.63962C13.4602 6.4607 13.1115 6.51934 12.9324 6.77063C12.7535 7.02192 12.8116 7.37052 13.0627 7.54993L14.7475 8.75168L14.7473 10.8129C14.1838 10.9372 13.676 11.2419 13.3012 11.6808L11.482 10.6859L11.2357 8.63241C11.1948 8.32972 10.9186 8.11611 10.6154 8.15255C10.3122 8.18898 10.0943 8.46198 10.126 8.76567L10.2772 10.0268L9.22971 9.45388C8.9592 9.3069 8.62058 9.40622 8.47258 9.67622C8.32435 9.94623 8.42267 10.2854 8.69217 10.4343L9.74322 11.0093L8.59635 11.5642C8.36727 11.6815 8.24699 11.9395 8.30464 12.1903C8.36228 12.4411 8.58263 12.6208 8.84015 12.6265C9.56055 12.3478 10.2643 12.0279 10.948 11.668L12.7642 12.6612V12.6615C12.604 13.1431 12.6015 13.6636 12.7572 14.147L10.9321 15.1251L9.07598 14.2068C8.80048 14.0771 8.47184 14.1918 8.33686 14.4648C8.20186 14.7378 8.31016 15.0687 8.58041 15.2089L9.72179 15.7734L8.66697 16.3389C8.39522 16.4848 8.29316 16.8235 8.43864 17.0955C8.58437 17.3672 8.92275 17.47 9.19475 17.3248L10.2486 16.7598L10.0866 18.0202C10.0532 18.3229 10.2685 18.5967 10.5707 18.6356C10.8726 18.6745 11.1504 18.4644 11.195 18.1632L11.4591 16.111L13.286 15.1316V15.1313C13.662 15.58 14.1758 15.8916 14.7473 16.0177V18.0786L13.0624 19.2804L13.0626 19.2806C12.8183 19.4623 12.7644 19.8059 12.9411 20.0537C13.1178 20.3018 13.4601 20.3627 13.7116 20.191L14.7475 19.4521V20.6464C14.7475 20.9551 14.9975 21.2054 15.3065 21.2054C15.6151 21.2054 15.8654 20.9551 15.8654 20.6464V19.4524L16.9013 20.1912L16.901 20.191C17.1526 20.3704 17.5017 20.3118 17.6808 20.0605C17.86 19.809 17.8016 19.4598 17.5501 19.2807L15.8652 18.0789L15.8654 16.0177C16.4289 15.8934 16.9367 15.5888 17.3115 15.1498L19.1309 16.145L19.3772 18.1982C19.4196 18.4994 19.6951 18.7115 19.9973 18.6753C20.2995 18.6389 20.5171 18.3676 20.4869 18.0649L20.3357 16.804C20.4861 16.8617 21.4735 17.4947 21.651 17.4454L21.651 17.4455ZM15.3117 14.9608C14.763 14.957 14.2574 14.6623 13.9834 14.187C13.7096 13.7113 13.7087 13.1262 13.9809 12.6496C14.2531 12.1732 14.7577 11.8767 15.3065 11.8712C15.8552 11.875 16.3608 12.1694 16.6345 12.645C16.9085 13.1207 16.9095 13.7056 16.6372 14.1822C16.365 14.6588 15.8604 14.955 15.3117 14.9608H15.3117Z" fill="#C2B395"/>
<path d="M28.2142 24.7915V17.8839C28.2142 17.5752 27.9642 17.325 27.6552 17.325C27.3466 17.325 27.0963 17.5752 27.0963 17.8839V24.7915C26.2037 24.9841 25.464 25.606 25.1212 26.4527C24.7786 27.2994 24.8771 28.2606 25.3844 29.0202C25.8917 29.7795 26.7422 30.2386 27.6555 30.2461C30.9601 30.1932 31.4091 25.4932 28.2142 24.7914L28.2142 24.7915ZM27.6552 29.1282C27.0743 29.122 26.5403 28.8083 26.2516 28.304C25.9629 27.8 25.9629 27.1804 26.2516 26.6763C26.5403 26.172 27.0743 25.8583 27.6555 25.8521C28.2364 25.8584 28.7704 26.172 29.0592 26.6763C29.3479 27.1804 29.3479 27.8 29.0592 28.304C28.7705 28.8084 28.2364 29.1221 27.6552 29.1282Z" fill="#C2B395"/>
<path d="M30.9592 22.4288V5.53899C30.8245 1.18255 24.4924 1.16581 24.3519 5.53899L24.3522 22.4281C19.6381 25.4827 21.3772 32.8447 26.9681 33.4995C33.2806 34.1623 36.2463 25.9429 30.9594 22.4288H30.9592ZM30.943 31.1634C28.1531 33.7696 23.3359 32.0515 22.7872 28.2834C22.627 27.2958 22.7712 26.2826 23.2004 25.379C23.6299 24.4752 24.3241 23.7236 25.191 23.2238C25.3634 23.124 25.4697 22.9396 25.4697 22.7402V5.53865C25.477 4.76261 25.8949 4.04841 26.5684 3.66263C27.2417 3.27659 28.0691 3.27659 28.7424 3.66263C29.4157 4.04866 29.8339 4.76261 29.8411 5.53865V22.7402C29.8411 22.9396 29.9474 23.124 30.1198 23.2238C31.4766 24.0233 32.3732 25.4195 32.5354 26.9859C32.6978 28.5523 32.1069 30.1029 30.943 31.1636L30.943 31.1634Z" fill="#C2B395"/>
<path d="M33.1446 7.46413H35.8893C36.1937 7.45814 36.4373 7.2096 36.4373 6.90516C36.4373 6.60047 36.1937 6.35218 35.8893 6.34619H33.1446C32.8402 6.35218 32.5964 6.60072 32.5964 6.90516C32.5964 7.2096 32.8402 7.45814 33.1446 7.46413Z" fill="#C2B395"/>
<path d="M33.1446 10.2088H34.5168C34.8215 10.2028 35.0653 9.95422 35.0653 9.64979C35.0653 9.3451 34.8215 9.09656 34.5168 9.09082H33.1446C32.8402 9.09656 32.5964 9.3451 32.5964 9.64979C32.5964 9.95422 32.8402 10.2028 33.1446 10.2088Z" fill="#C2B395"/>
<path d="M35.8896 11.8354H33.1449C32.8405 11.8414 32.5967 12.09 32.5967 12.3944C32.5967 12.6991 32.8405 12.9476 33.1449 12.9534H35.8896C36.194 12.9476 36.4376 12.6991 36.4376 12.3944C36.4376 12.09 36.194 11.8414 35.8896 11.8354Z" fill="#C2B395"/>
<path d="M33.1446 15.6978H34.5168C34.8215 15.692 35.0653 15.4435 35.0653 15.1388C35.0653 14.8341 34.8215 14.5856 34.5168 14.5798H33.1446C32.8402 14.5858 32.5964 14.8344 32.5964 15.1388C32.5964 15.4432 32.8402 15.6918 33.1446 15.6978Z" fill="#C2B395"/>
<path d="M35.8896 17.325H33.1449C32.8405 17.3309 32.5967 17.5795 32.5967 17.8839C32.5967 18.1884 32.8405 18.4369 33.1449 18.4429H35.8896C36.194 18.4369 36.4376 18.1884 36.4376 17.8839C36.4376 17.5795 36.194 17.3309 35.8896 17.325Z" fill="#C2B395"/>
<path d="M34.5168 20.0688H33.1446C32.8399 20.0746 32.5961 20.3231 32.5961 20.6278C32.5961 20.9323 32.8399 21.181 33.1446 21.1868H34.5168C34.8212 21.1808 35.065 20.9323 35.065 20.6278C35.065 20.3231 34.8212 20.0746 34.5168 20.0688Z" fill="#C2B395"/>
</g>
<defs>
<clipPath id="clip0_289_4039">
<rect width="44.7015" height="39" fill="white"/>
</clipPath>
</defs>
</svg>
