<svg width="41" height="34" viewBox="0 0 41 34" fill="none" xmlns="http://www.w3.org/2000/svg">
<g clip-path="url(#clip0_288_3915)">
<path d="M34.5393 1.80356C34.4949 1.80356 34.4528 1.8113 34.412 1.82223C34.3699 1.81085 34.3262 1.8047 34.2818 1.8047L6.52897 1.80447C6.47386 1.80447 6.42058 1.81449 6.37002 1.8318C6.32016 1.81495 6.26756 1.80356 6.21177 1.80356C5.93829 1.80356 5.71628 2.02558 5.71628 2.29905V30.678C5.71628 30.9514 5.93829 31.1734 6.21177 31.1734H12.1583C12.4317 31.1734 12.6538 30.9519 12.6538 30.678L12.654 14.03H28.1664V30.6774C28.1664 30.9508 28.388 31.1729 28.6619 31.1729H34.539C34.8125 31.1729 35.0345 30.9513 35.0345 30.6774L35.0343 2.29847C35.0343 2.02499 34.8127 1.80298 34.5388 1.80298L34.5393 1.80356ZM33.4775 2.79571L28.3179 13.0396H12.5606L7.33767 2.79571H33.4775ZM6.70752 30.1825V3.74065L11.6631 13.461V30.1825H6.70752ZM29.1574 30.1825V13.5753L34.0435 3.87355V30.1825L29.1574 30.1827V30.1825Z" fill="#C2B395" stroke="#C2B395" stroke-width="0.3"/>
</g>
<defs>
<clipPath id="clip0_288_3915">
<rect width="40.7907" height="33.8392" fill="white" transform="translate(0 0.161133)"/>
</clipPath>
</defs>
</svg>
