<svg width="48" height="38" viewBox="0 0 48 38" fill="none" xmlns="http://www.w3.org/2000/svg">
<g clip-path="url(#clip0_288_3651)">
<path d="M23.5815 3.77319C15.2599 3.77319 8.48926 10.5438 8.48926 18.8654V33.5803C8.48926 33.7887 8.65796 33.9577 8.86667 33.9577H38.2965C38.5049 33.9577 38.6739 33.789 38.6739 33.5803L38.6736 18.8654C38.6736 10.5438 31.903 3.77319 23.5814 3.77319H23.5815ZM9.24387 18.8654C9.24387 11.0862 15.4727 4.73869 23.2042 4.53724V33.203H9.24387V18.8654ZM37.919 33.203H23.9588V4.53724C31.6901 4.73858 37.919 11.0858 37.919 18.8654V33.203Z" fill="#C2B395" stroke="#C2B395" stroke-width="0.6"/>
<path d="M30.1857 30.0533C30.2594 30.127 30.356 30.1638 30.4526 30.1638C30.5492 30.1638 30.6458 30.127 30.7195 30.0533L34.8062 25.9665C34.9536 25.8191 34.9536 25.5804 34.8062 25.433C34.6589 25.2857 34.4201 25.2857 34.2728 25.433L30.1857 29.5195C30.0383 29.6669 30.0383 29.9059 30.1857 30.0533L30.1857 30.0533Z" fill="#C2B395" stroke="#C2B395" stroke-width="0.6"/>
<path d="M33.0397 30.8287C33.1134 30.9024 33.2098 30.9392 33.3064 30.9392C33.4029 30.9392 33.4995 30.9024 33.5732 30.8287L35.5816 28.8205C35.729 28.6731 35.729 28.4344 35.5816 28.2871C35.4342 28.1397 35.1955 28.1397 35.0481 28.2871L33.0397 30.2952C32.8924 30.4426 32.8924 30.6813 33.0397 30.8287H33.0397Z" fill="#C2B395" stroke="#C2B395" stroke-width="0.6"/>
</g>
<defs>
<clipPath id="clip0_288_3651">
<rect width="47.1463" height="38" fill="white"/>
</clipPath>
</defs>
</svg>
