<svg width="45" height="38" viewBox="0 0 45 38" fill="none" xmlns="http://www.w3.org/2000/svg">
<g clip-path="url(#clip0_288_3781)">
<path d="M12.2838 17.8672C12.2838 18.1755 12.0338 18.4255 11.7254 18.4255C11.4171 18.4255 11.1671 18.1755 11.1671 17.8672C11.1671 17.5589 11.4171 17.3088 11.7254 17.3088C12.0338 17.3088 12.2838 17.5589 12.2838 17.8672Z" fill="#C2B395"/>
<path d="M33.5013 17.8672C33.5013 18.1755 33.2512 18.4255 32.9429 18.4255C32.6346 18.4255 32.3846 18.1755 32.3846 17.8672C32.3846 17.5589 32.6346 17.3088 32.9429 17.3088C33.2512 17.3088 33.5013 17.5589 33.5013 17.8672Z" fill="#C2B395"/>
<path d="M37.9681 27.3593H37.8509C27.6238 25.1538 17.0444 25.1538 6.81729 27.3593C6.65028 27.3952 6.47604 27.3526 6.34418 27.2439C6.21257 27.135 6.13804 26.9717 6.14178 26.8009V8.93361C6.13804 8.76286 6.21257 8.59959 6.34418 8.49066C6.47604 8.38198 6.65028 8.33936 6.81729 8.37525C17.0444 10.5807 27.6238 10.5807 37.8509 8.37525C38.018 8.33936 38.1922 8.38198 38.324 8.49066C38.4557 8.59959 38.5302 8.76286 38.5265 8.93361V26.8009C38.5265 26.949 38.4676 27.0911 38.3629 27.1958C38.2582 27.3005 38.1162 27.3593 37.9681 27.3593H37.9681ZM22.3342 24.5675C27.3985 24.5698 32.4496 25.086 37.4097 26.1085V9.6201C27.464 11.6693 17.2043 11.6693 7.25861 9.6201V26.1142C12.2185 25.0897 17.2694 24.5715 22.3342 24.5675Z" fill="#C2B395"/>
<path d="M15.6339 26.0027C15.3256 26.0027 15.0756 25.7527 15.0756 25.4443V10.2903C15.0756 9.98195 15.3256 9.73193 15.6339 9.73193C15.9423 9.73193 16.1923 9.98195 16.1923 10.2903V25.4443C16.1923 25.5924 16.1335 25.7345 16.0288 25.8392C15.9241 25.9439 15.782 26.0027 15.6339 26.0027Z" fill="#C2B395"/>
<path d="M29.0344 26.0027C28.7261 26.0027 28.4761 25.7527 28.4761 25.4443V10.2903C28.4761 9.98195 28.7261 9.73193 29.0344 9.73193C29.3428 9.73193 29.5928 9.98195 29.5928 10.2903V25.4443C29.5928 25.5924 29.5339 25.7345 29.4293 25.8392C29.3246 25.9439 29.1825 26.0027 29.0344 26.0027Z" fill="#C2B395"/>
<path d="M22.3342 20.1009C22.0258 20.1009 21.7758 19.8509 21.7758 19.5425V16.1924C21.7758 15.884 22.0258 15.634 22.3342 15.634C22.6425 15.634 22.8925 15.884 22.8925 16.1924V19.5425C22.8925 19.6906 22.8337 19.8327 22.729 19.9374C22.6243 20.042 22.4822 20.1009 22.3342 20.1009Z" fill="#C2B395"/>
<path d="M24.0092 18.4255H20.6591C20.3508 18.4255 20.1008 18.1755 20.1008 17.8672C20.1008 17.5589 20.3508 17.3088 20.6591 17.3088H24.0092C24.3176 17.3088 24.5676 17.5589 24.5676 17.8672C24.5676 18.1755 24.3176 18.4255 24.0092 18.4255Z" fill="#C2B395"/>
<path d="M30.7095 18.4255H27.3594C27.051 18.4255 26.801 18.1755 26.801 17.8672C26.801 17.5589 27.051 17.3088 27.3594 17.3088H30.7095C31.0178 17.3088 31.2678 17.5589 31.2678 17.8672C31.2678 18.1755 31.0178 18.4255 30.7095 18.4255Z" fill="#C2B395"/>
<path d="M17.309 18.4255H13.9589C13.6505 18.4255 13.4005 18.1755 13.4005 17.8672C13.4005 17.5589 13.6505 17.3088 13.9589 17.3088H17.309C17.6173 17.3088 17.8673 17.5589 17.8673 17.8672C17.8673 18.1755 17.6173 18.4255 17.309 18.4255Z" fill="#C2B395"/>
</g>
<defs>
<clipPath id="clip0_288_3781">
<rect width="44.6524" height="38" fill="white"/>
</clipPath>
</defs>
</svg>
