<svg width="40" height="34" viewBox="0 0 40 34" fill="none" xmlns="http://www.w3.org/2000/svg">
<g clip-path="url(#clip0_290_4181)">
<path d="M35.5889 0H5.14982C5.08761 0 5.02517 0.031109 4.96273 0.0624364C4.96273 0.0624364 4.93162 0.0624364 4.93162 0.0935454C4.86919 0.124654 4.83808 0.187091 4.80675 0.249528V0.280637C4.77564 0.311964 4.77564 0.343073 4.77564 0.374183V3.43073C4.77564 3.55539 4.83808 3.68026 4.93162 3.74269L19.9952 14.2841V27.4452L5.08756 30.4391C4.86914 30.4702 4.74449 30.6887 4.7756 30.8757C4.80671 31.0628 4.96269 31.1877 5.14978 31.1877H5.21222L20.3694 28.1314H35.5889C35.8073 28.1314 35.9631 27.9754 35.9631 27.7572C35.9631 27.5388 35.8071 27.383 35.5889 27.383H20.7436L20.7434 14.4402H35.5887C35.8071 14.4402 35.9629 14.2842 35.9629 14.066V11.0097L35.9631 0.374717C35.9631 0.156516 35.8071 0.00053353 35.5889 0.00053353L35.5889 0ZM35.2145 0.748557V10.635H20.494L6.36599 0.748557H35.2145ZM5.52393 3.21226V1.1227L19.995 11.2275V13.3481L5.52393 3.21226ZM20.7435 13.6913V11.4146H35.1833V13.6913H20.7435Z" fill="#C2B395" stroke="#C2B395" stroke-width="0.4"/>
</g>
<defs>
<clipPath id="clip0_290_4181">
<rect width="38.9705" height="34" fill="white" transform="translate(0.877136)"/>
</clipPath>
</defs>
</svg>
