<svg width="49" height="40" viewBox="0 0 49 40" fill="none" xmlns="http://www.w3.org/2000/svg">
<g clip-path="url(#clip0_156_2732)">
<path d="M38.6508 10.2937C38.8717 10.2937 39.0508 10.4728 39.0508 10.6937V32.1148C39.0508 32.3357 38.8717 32.5148 38.6508 32.5148H17.2291C17.0082 32.5148 16.8291 32.3357 16.8291 32.1148V31.9344C16.8291 31.7135 17.0082 31.5344 17.2291 31.5344H38.0705V10.6937C38.0705 10.4728 38.2495 10.2937 38.4705 10.2937H38.6508ZM34.2392 6.53564C34.4602 6.53564 34.6392 6.71473 34.6392 6.93564V27.8672C34.6392 28.0881 34.4601 28.2672 34.2392 28.2672H10.2035C9.98255 28.2672 9.80347 28.0881 9.80347 27.8672V6.93564C9.80347 6.71473 9.98255 6.53564 10.2035 6.53564H34.2392ZM17.6463 7.51599H10.7838V27.2869H17.6463V7.51599ZM25.6522 7.51599H18.7898V27.2869H25.6522V7.51599ZM33.6589 7.51599H26.7964V27.2869H33.6589V7.51599Z" fill="#C2B395" stroke="#C2B395" stroke-width="0.4"/>
</g>
<defs>
<clipPath id="clip0_156_2732">
<rect width="49" height="39.179" fill="white"/>
</clipPath>
</defs>
</svg>
