<svg width="40" height="33" viewBox="0 0 40 33" fill="none" xmlns="http://www.w3.org/2000/svg">
<g clip-path="url(#clip0_156_2432)">
<path d="M32.1463 29.5453H31.1088V18.027H31.8131C32.0343 18.027 32.2139 17.843 32.2139 17.617V12.1061C32.2139 11.4022 31.6526 10.8283 30.963 10.8283H26.9249C26.8666 10.8283 26.8108 10.8397 26.7539 10.8477L24.0119 8.47103L24.0117 8.4708C24.0117 8.4708 24.0115 8.4708 24.0115 8.47057L20.797 5.68421C20.7968 5.68398 20.7965 5.68352 20.7963 5.6833C20.7961 5.68307 20.7956 5.68307 20.7952 5.68261L17.582 2.89736C17.5814 2.8969 17.5814 2.89599 17.5807 2.89576C17.58 2.89531 17.5794 2.89531 17.5789 2.89485L15.2374 0.865229C15.1561 0.795234 15.0485 0.757383 14.9452 0.769243C14.8396 0.778135 14.7412 0.829204 14.6722 0.912197L12.9613 2.9717C12.9483 2.98744 12.9437 3.00659 12.9334 3.02346C12.9187 3.04717 12.9035 3.06974 12.8941 3.09642C12.8841 3.12446 12.8812 3.15319 12.8774 3.18238C12.8749 3.2013 12.8666 3.21795 12.8666 3.23733L12.8867 10.8707L12.7983 10.872C12.6921 10.8741 12.5907 10.919 12.5169 10.9961C12.4425 11.074 12.4019 11.1789 12.4032 11.2879L12.4537 14.9142C12.455 15.0221 12.4988 15.1263 12.5751 15.2022C12.6499 15.2763 12.7503 15.3183 12.8546 15.3183H12.8604L13.9287 15.3025C13.9367 16.1336 14.3195 16.9263 15.0309 17.4487C15.3157 17.6566 15.4791 17.9765 15.4914 18.3486C15.5046 18.7494 15.2784 19.1484 14.9296 19.3424C14.6209 19.5134 14.2796 19.5333 13.9664 19.4004C13.6577 19.2683 13.426 19.0064 13.3323 18.6785C13.2695 18.4626 13.0465 18.3386 12.8345 18.4015C12.6222 18.4656 12.5003 18.6933 12.5628 18.9104C12.6852 19.334 12.9403 19.6959 13.2856 19.9457L7.90323 22.8596C7.88627 22.8689 7.87556 22.8842 7.86038 22.8956C7.83761 22.9125 7.81506 22.928 7.79631 22.9494C7.77846 22.9695 7.7664 22.992 7.75301 23.0151C7.74006 23.0372 7.72667 23.0579 7.71774 23.0823C7.7077 23.1101 7.7048 23.1386 7.70078 23.1678C7.69832 23.1863 7.69006 23.2025 7.69006 23.2216V25.0684C7.69006 25.2944 7.86975 25.4784 8.09095 25.4784H20.7492C20.9704 25.4784 21.1501 25.2944 21.1501 25.0684V23.2216C21.1501 23.2025 21.1421 23.1863 21.1394 23.1678C21.1354 23.1384 21.1325 23.1101 21.1225 23.0823C21.1137 23.0577 21.1004 23.0369 21.0872 23.0151C21.0738 22.992 21.0617 22.9697 21.0439 22.9494C21.0251 22.928 21.0024 22.9125 20.9798 22.8956C20.9646 22.8844 20.9539 22.8689 20.937 22.8596L15.5022 19.9175C16.001 19.5481 16.3129 18.9537 16.2923 18.3204C16.2713 17.6975 15.9816 17.1375 15.4979 16.7827C14.9977 16.4159 14.7285 15.8646 14.723 15.2907L15.9218 15.2732C16.143 15.2691 16.3203 15.0832 16.3167 14.8573L16.2662 11.2321C16.2633 11.0062 16.0749 10.8313 15.8595 10.8281L15.6658 10.8309L15.6665 5.85342L24.511 13.5194C24.5101 13.5381 24.5019 13.5555 24.5019 13.5739V17.6171C24.5019 17.843 24.6816 18.027 24.9028 18.027H25.6065V29.5459H24.5691C24.3479 29.5459 24.1682 29.7299 24.1682 29.9558V31.5165C24.1682 31.7424 24.3479 31.9264 24.5691 31.9264H32.1468C32.368 31.9264 32.5477 31.7424 32.5477 31.5165V29.9558C32.5474 29.7299 32.368 29.5459 32.1466 29.5459L32.1463 29.5453ZM20.3452 24.5208H8.6846V23.511H20.3452V24.5208ZM19.1523 22.7046H9.87745L14.4402 20.2345C14.4538 20.2347 14.4674 20.2386 14.4813 20.2386C14.5127 20.2386 14.5435 20.2281 14.575 20.2265L19.1523 22.7046ZM15.1095 1.99572L16.4893 3.19203L14.2168 3.65054L13.9366 3.40772L15.1095 1.99572ZM14.9521 5.34341V10.9337L13.7949 10.9503L13.7775 4.3256L14.9521 5.34341ZM14.5309 14.5066C14.5249 14.5052 14.5202 14.5009 14.5139 14.4995C14.4525 14.4876 14.3934 14.494 14.3376 14.5095L13.3632 14.5241L13.3253 11.7633L15.2798 11.7348C15.3023 11.7389 15.3226 11.7485 15.3463 11.7485C15.3735 11.7485 15.3972 11.738 15.4228 11.7327L15.5485 11.7309L15.5864 14.4908L14.5309 14.5066ZM16.8949 5.97145L14.986 4.31643L16.9588 3.91857L16.8949 5.97145ZM17.7367 4.27283L19.6519 5.93287L17.6731 6.33209L17.7367 4.27283ZM20.0572 8.71222L18.1483 7.05761L20.1208 6.65998L20.0572 8.71222ZM20.8989 7.01384L22.8143 8.67411L20.8353 9.07333L20.8989 7.01384ZM23.2194 11.4532L21.3109 9.79886L23.2831 9.40123L23.2194 11.4532ZM26.8125 11.7257H27.5176V14.4916H25.2179V13.6195C25.2179 13.5162 25.2536 13.415 25.3174 13.3343L26.4701 11.8908C26.5545 11.7857 26.679 11.7258 26.8125 11.7258L26.8125 11.7257ZM24.7453 12.7758L23.9877 12.1192L24.0609 9.75485L25.8955 11.3451C25.8841 11.3581 25.8702 11.3677 25.8593 11.3814L24.7453 12.7758ZM25.2178 17.1924V15.2977H27.9118C28.1295 15.2977 28.306 15.1167 28.306 14.8946V11.7257H30.7837C31.0272 11.7257 31.2254 11.9272 31.2254 12.176V17.1924L25.2178 17.1924ZM26.7167 17.9988H29.7254L28.2211 19.9733L26.7167 17.9988ZM30.1997 23.7866L28.3578 26.2038L26.5156 23.7863L28.3578 21.3686L30.1997 23.7866ZM27.7214 20.6295L26.3039 22.4899V18.769L27.7214 20.6295ZM27.8495 26.8707L26.408 28.7622V24.979L27.8495 26.8707ZM28.3578 27.5376L29.8876 29.5452H26.8278L28.3578 27.5376ZM28.8658 26.8707L30.3073 24.9793V28.7624L28.8658 26.8707ZM28.7214 20.6295L30.1388 18.7695V22.4895L28.7214 20.6295ZM31.7457 31.1059H24.9697V30.3652H31.7457V31.1059Z" fill="#C2B395" stroke="#C2B395" stroke-width="0.3"/>
<path d="M20.739 27.2939H8.05276C7.83513 27.2939 7.65857 27.475 7.65857 27.697V32.2653C7.65857 32.4876 7.83513 32.6684 8.05276 32.6684H20.739C20.9567 32.6684 21.1332 32.4873 21.1332 32.2653V27.697C21.1335 27.4747 20.9569 27.2939 20.7393 27.2939H20.739ZM20.3449 31.8622H8.44714V28.1002H20.3449V31.8622Z" fill="#C2B395" stroke="#C2B395" stroke-width="0.3"/>
</g>
<defs>
<clipPath id="clip0_156_2432">
<rect width="40" height="32.6882" fill="white"/>
</clipPath>
</defs>
</svg>
