<svg width="33" height="28" viewBox="0 0 33 28" fill="none" xmlns="http://www.w3.org/2000/svg">
<g clip-path="url(#clip0_156_2674)">
<path d="M20.8842 3.60221C20.7232 3.43859 20.4632 3.43859 20.3024 3.60221L14.1537 9.85063C13.9927 10.0142 13.9927 10.2784 14.1537 10.4418C14.2362 10.5257 14.3394 10.5635 14.4466 10.5635C14.5538 10.5635 14.657 10.5216 14.7395 10.4418L20.8882 4.19341C21.0492 4.02979 21.0492 3.76564 20.8882 3.60221H20.8842Z" fill="#C2B395" stroke="#C2B395" stroke-width="0.4"/>
<path d="M22.0311 6.8732L18.3585 10.6053C18.1975 10.769 18.1975 11.0331 18.3585 11.1965C18.4411 11.2804 18.5442 11.3182 18.6515 11.3182C18.7587 11.3182 18.8618 11.2763 18.9444 11.1965L22.6169 7.4644C22.7779 7.30078 22.7779 7.03664 22.6169 6.8732C22.4559 6.70958 22.196 6.70958 22.0352 6.8732H22.0311Z" fill="#C2B395" stroke="#C2B395" stroke-width="0.4"/>
<path d="M20.8348 13.1217L15.6354 18.4054C15.4744 18.5691 15.4744 18.8332 15.6354 18.9966C15.7179 19.0805 15.8211 19.1183 15.9283 19.1183C16.0355 19.1183 16.1387 19.0764 16.2212 18.9966L21.4206 13.7129C21.5816 13.5493 21.5816 13.2852 21.4206 13.1217C21.2596 12.9581 20.9996 12.9581 20.8388 13.1217H20.8348Z" fill="#C2B395" stroke="#C2B395" stroke-width="0.4"/>
<path d="M29.298 15.5953C29.298 9.80388 29.298 6.49887 29.298 0.820884C29.298 0.59997 29.1189 0.419434 28.898 0.419434H4.11387C3.89295 0.419434 3.71387 0.59852 3.71387 0.819434V26.0186C3.71387 26.2395 3.89295 26.4186 4.11387 26.4186H28.898C29.1189 26.4186 29.298 26.2395 29.298 26.0186V15.5953ZM7.74932 1.25812L4.53897 4.52054V1.25812H7.74932ZM24.5976 25.5799L27.1932 22.9422C27.3542 22.7785 27.3542 22.5144 27.1932 22.351C27.0322 22.1873 26.7723 22.1873 26.6115 22.351L23.43 25.584H19.646L21.0037 24.2043C21.1647 24.0407 21.1647 23.7765 21.0037 23.6131C20.8427 23.4495 20.5828 23.4495 20.4219 23.6131L18.4784 25.5881H14.6944L24.2226 15.9054C24.3836 15.7418 24.3836 15.4777 24.2226 15.3142C24.0616 15.1506 23.8016 15.1506 23.6408 15.3142L13.527 25.5922L4.79062 25.5924L13.1634 17.0838C13.3244 16.9202 13.3244 16.656 13.1634 16.4926C13.0023 16.329 12.7424 16.329 12.5816 16.4926L4.53897 24.6532V15.7757L8.54571 11.7039C8.70672 11.5403 8.70672 11.2762 8.54571 11.1127C8.3847 10.9491 8.12477 10.9491 7.96395 11.1127L4.53897 14.5889V5.70706L8.91304 1.25792H12.697L7.95984 6.07627C7.79884 6.23989 7.79884 6.50403 7.95984 6.66747C8.04237 6.75133 8.14554 6.78915 8.25275 6.78915C8.35996 6.78915 8.46312 6.74722 8.54565 6.66747L13.8648 1.25773H28.4725V5.35884L25.2911 8.59188C25.1301 8.7555 25.1301 9.01965 25.2911 9.18308C25.3736 9.26695 25.4768 9.30477 25.584 9.30477C25.6912 9.30477 25.7944 9.26283 25.8769 9.18308L28.4725 6.54535V15.4229L22.8152 21.1763C22.6542 21.3399 22.6542 21.604 22.8152 21.7675C22.8978 21.8472 23.0009 21.8892 23.1081 21.8892C23.2153 21.8892 23.3185 21.8472 23.401 21.7675L28.4726 16.6098V25.5794L24.5976 25.5799Z" fill="#C2B395" stroke="#C2B395" stroke-width="0.4"/>
</g>
<defs>
<clipPath id="clip0_156_2674">
<rect width="33" height="28" fill="white"/>
</clipPath>
</defs>
</svg>
