<svg width="35" height="31" viewBox="0 0 35 31" fill="none" xmlns="http://www.w3.org/2000/svg">
<g clip-path="url(#clip0_156_2530)">
<path d="M5.0455 1.26025C4.88877 1.26025 4.76172 1.38731 4.76172 1.54404V26.4656C4.76172 26.6223 4.88877 26.7494 5.0455 26.7494H29.967C30.1238 26.7494 30.2508 26.6223 30.2508 26.4656V1.54404C30.2508 1.38731 30.1238 1.26025 29.967 1.26025H5.0455ZM20.9113 2.1006C21.068 2.1006 21.1951 2.22766 21.1951 2.38439V25.6253C21.1951 25.7821 21.068 25.9091 20.9113 25.9091H14.1012C13.9445 25.9091 13.8175 25.7821 13.8175 25.6253V2.38439C13.8175 2.22766 13.9445 2.1006 14.1012 2.1006H20.9113ZM5.60202 2.38439C5.60202 2.22766 5.72907 2.1006 5.8858 2.1006H12.6934C12.8501 2.1006 12.9772 2.22766 12.9772 2.38439V25.6253C12.9772 25.7821 12.8501 25.9091 12.6934 25.9091H5.8858C5.72907 25.9091 5.60202 25.7821 5.60202 25.6253V2.38439ZM29.4105 25.6253C29.4105 25.7821 29.2835 25.9091 29.1267 25.9091H22.3192C22.1624 25.9091 22.0354 25.7821 22.0354 25.6253V2.38439C22.0354 2.22766 22.1624 2.1006 22.3192 2.1006H29.1267C29.2835 2.1006 29.4105 2.22766 29.4105 2.38439V25.6253Z" fill="#C2B395" stroke="#C2B395" stroke-width="0.378378"/>
<path d="M7.24916 3.37241C7.24916 3.59051 7.07222 3.76747 6.85391 3.76747C6.6358 3.76747 6.45885 3.59052 6.45885 3.37241C6.45885 3.15411 6.63581 2.97716 6.85391 2.97716C7.07221 2.97716 7.24916 3.15411 7.24916 3.37241Z" fill="#C2B395" stroke="#C2B395" stroke-width="0.0500179"/>
<path d="M12.0978 3.37241C12.0978 3.59052 11.9208 3.76747 11.7027 3.76747C11.4844 3.76747 11.3075 3.59051 11.3075 3.37241C11.3075 3.15411 11.4844 2.97716 11.7027 2.97716C11.9208 2.97716 12.0978 3.15411 12.0978 3.37241Z" fill="#C2B395" stroke="#C2B395" stroke-width="0.0500179"/>
<path d="M15.4871 3.37241C15.4871 3.59051 15.3101 3.76747 15.0918 3.76747C14.8737 3.76747 14.6968 3.59052 14.6968 3.37241C14.6968 3.15411 14.8737 2.97716 15.0918 2.97716C15.3101 2.97716 15.4871 3.15411 15.4871 3.37241Z" fill="#C2B395" stroke="#C2B395" stroke-width="0.0500179"/>
<path d="M20.3299 3.37241C20.3299 3.59051 20.1529 3.76747 19.9346 3.76747C19.7165 3.76747 19.5395 3.59052 19.5395 3.37241C19.5395 3.15411 19.7165 2.97716 19.9346 2.97716C20.1529 2.97716 20.3299 3.15411 20.3299 3.37241Z" fill="#C2B395" stroke="#C2B395" stroke-width="0.0500179"/>
<path d="M23.6911 3.37241C23.6911 3.59052 23.5141 3.76747 23.296 3.76747C23.0777 3.76747 22.9007 3.59051 22.9007 3.37241C22.9007 3.15411 23.0777 2.97716 23.296 2.97716C23.5141 2.97716 23.6911 3.15411 23.6911 3.37241Z" fill="#C2B395" stroke="#C2B395" stroke-width="0.0500179"/>
<path d="M28.5366 3.37241C28.5366 3.59052 28.3597 3.76747 28.1416 3.76747C27.9233 3.76747 27.7463 3.59051 27.7463 3.37241C27.7463 3.15411 27.9233 2.97716 28.1416 2.97716C28.3597 2.97716 28.5366 3.15411 28.5366 3.37241Z" fill="#C2B395" stroke="#C2B395" stroke-width="0.0500179"/>
<path d="M7.24916 24.6598C7.24916 24.8781 7.07221 25.0551 6.85391 25.0551C6.63581 25.0551 6.45885 24.8781 6.45885 24.6598C6.45885 24.4417 6.6358 24.2648 6.85391 24.2648C7.07222 24.2648 7.24916 24.4417 7.24916 24.6598Z" fill="#C2B395" stroke="#C2B395" stroke-width="0.0500179"/>
<path d="M12.0978 24.6598C12.0978 24.8781 11.9208 25.0551 11.7027 25.0551C11.4844 25.0551 11.3075 24.8781 11.3075 24.6598C11.3075 24.4417 11.4844 24.2648 11.7027 24.2648C11.9208 24.2648 12.0978 24.4417 12.0978 24.6598Z" fill="#C2B395" stroke="#C2B395" stroke-width="0.0500179"/>
<path d="M15.4871 24.6598C15.4871 24.8781 15.3101 25.0551 15.0918 25.0551C14.8737 25.0551 14.6968 24.8781 14.6968 24.6598C14.6968 24.4417 14.8737 24.2648 15.0918 24.2648C15.3101 24.2648 15.4871 24.4417 15.4871 24.6598Z" fill="#C2B395" stroke="#C2B395" stroke-width="0.0500179"/>
<path d="M20.3299 24.6598C20.3299 24.8781 20.1529 25.0551 19.9346 25.0551C19.7165 25.0551 19.5395 24.8781 19.5395 24.6598C19.5395 24.4417 19.7165 24.2648 19.9346 24.2648C20.1529 24.2648 20.3299 24.4417 20.3299 24.6598Z" fill="#C2B395" stroke="#C2B395" stroke-width="0.0500179"/>
<path d="M23.6911 24.6598C23.6911 24.8781 23.5141 25.0551 23.296 25.0551C23.0777 25.0551 22.9007 24.8781 22.9007 24.6598C22.9007 24.4417 23.0777 24.2648 23.296 24.2648C23.5141 24.2648 23.6911 24.4417 23.6911 24.6598Z" fill="#C2B395" stroke="#C2B395" stroke-width="0.0500179"/>
<path d="M28.5366 24.6598C28.5366 24.8781 28.3597 25.0551 28.1416 25.0551C27.9233 25.0551 27.7463 24.8781 27.7463 24.6598C27.7463 24.4417 27.9233 24.2648 28.1416 24.2648C28.3597 24.2648 28.5366 24.4417 28.5366 24.6598Z" fill="#C2B395" stroke="#C2B395" stroke-width="0.0500179"/>
</g>
<defs>
<clipPath id="clip0_156_2530">
<rect width="35" height="30.2733" fill="white"/>
</clipPath>
</defs>
</svg>
