<svg width="39" height="31" viewBox="0 0 39 31" fill="none" xmlns="http://www.w3.org/2000/svg">
<g clip-path="url(#clip0_136_571)">
<path d="M33.525 14.1853L30.8768 9.39255C30.7932 9.24129 30.6341 9.14728 30.4609 9.14728L27.187 9.14749V7.7762H30.1925V6.82621H27.187V4.45095H30.1925V3.50096H27.187V1.56055H26.237V3.5003H19.919V1.56055H18.9691V3.5003H12.8321V1.62167H11.8821V3.50052H8.59238V4.4505H11.8821V6.82577H8.59238V7.77575H11.8821V9.14705H8.50251C8.32906 9.14705 8.16953 9.2415 8.08596 9.39363L5.47106 14.1579L5.48347 14.1648C5.46976 14.2094 5.46018 14.2556 5.46018 14.3048V29.1955C5.46018 29.458 5.67303 29.6706 5.93527 29.6706H33.0464C33.3089 29.6706 33.5215 29.4578 33.5215 29.1955L33.5217 14.3048C33.5217 14.2671 33.5161 14.2306 33.5076 14.1953L33.525 14.1853ZM26.2364 9.14702H19.919V7.77572H26.2364V9.14702ZM26.2364 4.45047V6.82574H19.919V4.45047H26.2364ZM12.8321 4.45047H18.9685V6.82574H12.8321V4.45047ZM12.8321 7.77594H18.9685V9.14724L12.8321 9.14702V7.77594ZM8.78369 10.0972H11.8819V12.0883H12.8319V10.0972H18.9683V12.0272H19.9182V10.0972H26.2357V12.0272H27.1857V10.0972H30.1792L32.2415 13.8294L6.73496 13.8292L8.78369 10.0972ZM32.5709 28.7203H6.41026V14.78H32.5709L32.5711 28.7203H32.5709Z" fill="#C2B395"/>
<path d="M29.1742 16.4888L27.7925 17.0637L29.7166 17.7917L29.1742 16.4888Z" fill="#C2B395"/>
<path d="M27.7418 22.4357L26.7953 21.9619L25.8343 22.9768L27.2674 23.382L27.7418 22.4357Z" fill="#C2B395"/>
<path d="M23.4457 17.7192L23.7665 17.3984L24.235 17.867L23.9143 18.1878L23.4457 17.7192Z" fill="#C2B395"/>
<path d="M17.2196 23.7983L16.558 26.1727L18.0547 25.3857L17.2196 23.7983Z" fill="#C2B395"/>
<path d="M26.3289 18.4279L26.6834 17.8682L27.2436 18.2229L26.8891 18.7827L26.3289 18.4279Z" fill="#C2B395"/>
<path d="M8.53097 16.4766L7.87544 17.7717L9.75189 17.0947L8.53097 16.4766Z" fill="#C2B395"/>
<path d="M9.10483 19.7045L9.18992 19.2729L10.8837 19.6064L10.7987 20.0379L9.10483 19.7045Z" fill="#C2B395"/>
<path d="M9.49427 22.1816L8.50189 22.4428L8.45227 23.7972L9.75548 23.1741L9.49427 22.1816Z" fill="#C2B395"/>
<path d="M13.3597 18.8046L13.6707 18.4937L14.1251 18.9481L13.8141 19.2591L13.3597 18.8046Z" fill="#C2B395"/>
<path d="M9.36892 27.623L9.67991 27.312L10.1343 27.7664L9.82333 28.0774L9.36892 27.623Z" fill="#C2B395"/>
<path d="M13.557 24.9122L12.5325 24.8506L12.4712 25.8752L13.7426 26.3449L13.557 24.9122Z" fill="#C2B395"/>
<path d="M29.7169 24.5686L30.9126 24.0176L31.3152 24.8912L30.1195 25.4422L29.7169 24.5686Z" fill="#C2B395"/>
<path d="M24.4992 25.8849L23.1813 24.9966L23.6622 27.1277L24.4992 25.8849Z" fill="#C2B395"/>
<path d="M27.7925 26.6597L28.1133 26.3389L28.5821 26.8077L28.2613 27.1284L27.7925 26.6597Z" fill="#C2B395"/>
<path d="M16.7349 19.0638L17.8944 18.5293L18.2849 19.3763L17.1253 19.9108L16.7349 19.0638Z" fill="#C2B395"/>
</g>
<defs>
<clipPath id="clip0_136_571">
<rect width="39" height="31" fill="white"/>
</clipPath>
</defs>
</svg>
