<svg width="40" height="36" viewBox="0 0 40 36" fill="none" xmlns="http://www.w3.org/2000/svg">
<g clip-path="url(#clip0_222_368)">
<path d="M30.4563 30.7636H9.53655C8.85964 30.7636 8.30597 30.2099 8.30597 29.5331V11.0752H31.6864V29.5336C31.6866 30.2103 31.1327 30.764 30.456 30.764L30.4563 30.7636ZM9.53655 12.3052V29.533H30.4557V12.3052H9.53655Z" fill="#C2B395"/>
<path d="M33.5323 12.3057H6.46059C5.78368 12.3057 5.23001 11.8134 5.23001 11.1983V9.22942C5.23001 8.6141 5.78371 8.12202 6.399 8.12202L18.4586 6.39935C19.5046 6.27639 20.489 6.27639 21.5351 6.39935L33.5946 8.12202C34.2715 8.12202 34.7636 8.61434 34.7636 9.22942V11.1983C34.7634 11.8136 34.2097 12.3057 33.5328 12.3057H33.5323ZM6.46059 11.0753H33.5329V9.35266H33.4713L21.3506 7.62999C20.4278 7.50703 19.5664 7.50703 18.6435 7.62999L6.4611 9.35243L6.46059 11.0753Z" fill="#C2B395"/>
<path d="M17.5969 28.3026C17.474 28.3026 17.4124 28.3026 17.3508 28.241C17.1046 28.1181 16.9816 27.8719 17.0432 27.5641L18.1506 21.5343H15.9972C15.7511 21.5343 15.5049 21.4114 15.4435 21.1652C15.3206 20.9191 15.382 20.6729 15.5665 20.4883L22.6424 13.7204C22.827 13.5358 23.1961 13.4742 23.3807 13.6588C23.6268 13.8433 23.6882 14.1511 23.6268 14.397L21.7196 19.3807H24.6728C24.919 19.3807 25.1651 19.5037 25.2265 19.7499C25.2881 19.996 25.2881 20.2422 25.1035 20.4268L18.0277 28.118C17.9045 28.2412 17.7815 28.3025 17.5969 28.3025L17.5969 28.3026ZM17.474 20.3041H18.8275C19.0121 20.3041 19.1966 20.3657 19.3198 20.5502C19.4428 20.6732 19.5044 20.8578 19.4428 21.0425L18.5813 25.7187L23.2575 20.6121H20.7964C20.6118 20.6121 20.4272 20.4891 20.304 20.3659C20.1811 20.1813 20.1811 19.9968 20.2424 19.8122L21.473 16.6128L17.474 20.3041Z" fill="#C2B395"/>
<path d="M8.92127 8.98289C8.7983 8.98289 8.61373 8.9213 8.49054 8.85992C8.36757 8.73673 8.30597 8.55217 8.30597 8.3676V2.89177C8.30597 1.96874 8.98288 1.23047 9.84432 1.23047C10.7055 1.23047 11.3825 1.96874 11.3825 2.89177V8.12164C11.3825 8.42918 11.1363 8.67534 10.8288 8.73696L8.98285 8.98312C8.98285 8.9829 8.92126 8.9829 8.92126 8.9829L8.92127 8.98289ZM9.8443 2.46119C9.72111 2.46119 9.53654 2.64576 9.53654 2.89192V7.69107L10.1519 7.62947V2.89192C10.1519 2.64575 9.9673 2.46119 9.84433 2.46119L9.8443 2.46119Z" fill="#C2B395"/>
<path d="M12.6132 4.30707H7.0758C6.70645 4.30707 6.46048 4.06113 6.46048 3.69198C6.46048 3.32285 6.70664 3.07666 7.0758 3.07666H12.6132C12.9823 3.07666 13.2285 3.32282 13.2285 3.69198C13.2285 4.06111 12.9824 4.30707 12.6132 4.30707Z" fill="#C2B395"/>
<path d="M12.6132 6.76824H7.0758C6.70667 6.76824 6.46048 6.52207 6.46048 6.15292C6.46048 5.78379 6.70664 5.5376 7.0758 5.5376H12.6132C12.9823 5.5376 13.2285 5.78376 13.2285 6.15292C13.2285 6.52205 12.9824 6.76824 12.6132 6.76824Z" fill="#C2B395"/>
<path d="M31.0715 8.98289H31.0099L29.164 8.73673C28.8565 8.67514 28.6104 8.4292 28.6104 8.12141V2.89177C28.6104 1.96874 29.2873 1.23047 30.1485 1.23047C31.0099 1.23047 31.6868 1.96874 31.6868 2.89177V8.36783C31.6868 8.55239 31.6252 8.73696 31.5023 8.86015C31.3791 8.9829 31.1945 8.98289 31.0715 8.98289H31.0715ZM29.841 7.56772L30.4563 7.62931V2.89176C30.4563 2.64559 30.2717 2.46103 30.1485 2.46103C30.0256 2.46103 29.841 2.64559 29.841 2.89176L29.841 7.56772Z" fill="#C2B395"/>
<path d="M32.9169 4.30681H27.3795C27.0104 4.30681 26.7642 4.06065 26.7642 3.69149C26.7642 3.32236 27.0104 3.07617 27.3795 3.07617H32.9169C33.2861 3.07617 33.5322 3.32233 33.5322 3.69149C33.5322 4.06084 33.2863 4.30681 32.9169 4.30681Z" fill="#C2B395"/>
<path d="M32.9169 6.76824H27.3795C27.0104 6.76824 26.7642 6.52207 26.7642 6.15292C26.7642 5.78379 27.0104 5.5376 27.3795 5.5376H32.9169C33.2861 5.5376 33.5322 5.78376 33.5322 6.15292C33.5322 6.52205 33.2863 6.76824 32.9169 6.76824Z" fill="#C2B395"/>
</g>
<defs>
<clipPath id="clip0_222_368">
<rect width="39.9786" height="35.8651" fill="white"/>
</clipPath>
</defs>
</svg>
