<svg width="38" height="33" viewBox="0 0 38 33" fill="none" xmlns="http://www.w3.org/2000/svg">
<g clip-path="url(#clip0_156_2633)">
<path fill-rule="evenodd" clip-rule="evenodd" d="M7.5772 25.0982H6.15654C5.89524 25.0982 5.68298 25.3105 5.68298 25.5718V27.9396C5.68298 28.2009 5.89524 28.4131 6.15654 28.4131H31.7285C31.9898 28.4131 32.2021 28.2009 32.2021 27.9396V25.5718C32.2021 25.3105 31.9898 25.0982 31.7285 25.0982H30.3078V2.3676C30.3078 2.1063 30.0956 1.89404 29.8343 1.89404H8.05076C7.78946 1.89404 7.5772 2.1063 7.5772 2.3676V25.0982ZM6.63009 26.0453H31.2549V27.466H6.63009V26.0453ZM29.3607 25.0982V2.84115H8.52431V25.0982H9.47142V4.26182C9.47142 4.00052 9.68368 3.78826 9.94498 3.78826H27.9401C28.2014 3.78826 28.4136 4.00052 28.4136 4.26182V25.0982H29.3607ZM18.469 15.3901V25.0982H10.4185V15.3901H18.469ZM27.4665 15.3901V25.0982H19.4161V15.3901H27.4665ZM27.4665 14.443H19.4161V4.73483H27.4665V14.443ZM18.469 14.443H10.4185V4.73483H18.469V14.443Z" fill="#C2B395" stroke="#C2B395" stroke-width="0.2"/>
</g>
<defs>
<clipPath id="clip0_156_2633">
<rect width="37.8708" height="33" fill="white"/>
</clipPath>
</defs>
</svg>
