<svg width="33" height="33" viewBox="0 0 33 33" fill="none" xmlns="http://www.w3.org/2000/svg">
<path d="M13.5 15L8 7L9.5 9V6.5L3 3V30L9.5 26V21.1818M13.5 15L9.5 21.1818M13.5 15C13.5 15.6667 13.8 17 15 17C16 17 17 17 17 15M13.5 15C13.5 13 14.5 13 15 13C15.9213 13 17 13 17 15M8 23.5L9.5 21.1818M17 15H19.5V22C19 24.3182 16.5 24.3182 16 22C15.5 20 12.5 20 12 22V26H27M27 26C28.3333 26 30 25.5 30 23.5C30 21.5 30 12.6667 30 8.5H22V23.339C22 24.3927 23 26.4 27 26ZM24 27.5V29.5M6 9.5L7 10.5M8 11.5L9 12.5M10 13.5L11 14.5M6.5 21L7.5 20M8.5 19L9.5 18M10.5 17L11.5 16M28.5 27.5V29.5" stroke="#C2B395" stroke-width="1.2" stroke-linecap="round" stroke-linejoin="round"/>
<path d="M8.5 15.5H10M5.5 15.5H7" stroke="#C2B395" stroke-width="1.2" stroke-linecap="round" stroke-linejoin="round"/>
</svg>
