<svg width="40" height="36" viewBox="0 0 40 36" fill="none" xmlns="http://www.w3.org/2000/svg">
<g clip-path="url(#clip0_156_2363)">
<path d="M33.1821 15.852C33.8608 16.3852 34.8786 16.2883 35.412 15.5612C35.9452 14.8825 35.7999 13.8646 35.1212 13.3313L30.6129 9.84101V4.99342C30.6129 4.70262 30.419 4.50868 30.1282 4.50868H26.7832C26.4924 4.50868 26.2985 4.70262 26.2985 4.99342V6.54469L21.1599 2.61795C20.6267 2.18165 19.7541 2.18165 19.2209 2.61795L14.3733 6.3021C14.3733 5.96287 14.3249 5.67187 14.2278 5.38106L15.5367 4.8479C15.7791 4.75104 15.9246 4.46002 15.7791 4.21767C15.6822 3.9753 15.3912 3.87844 15.1489 3.9753L13.84 4.50846C13.646 4.16924 13.4037 3.82979 13.1128 3.53898L13.9854 2.37559C14.1309 2.18165 14.1309 1.84242 13.8886 1.69691C13.6946 1.5514 13.3554 1.60005 13.2099 1.79376L12.3857 2.90899C12.0465 2.71506 11.6586 2.56977 11.2707 2.47269L11.4646 1.06694C11.5131 0.824571 11.3191 0.582203 11.0283 0.533777C10.7375 0.485348 10.5436 0.679288 10.4952 0.970082L10.3012 2.32721C9.91334 2.32721 9.47702 2.37564 9.08938 2.47272L8.55599 1.16381C8.45913 0.921445 8.16811 0.824588 7.92576 0.921445C7.68339 1.0183 7.53788 1.30932 7.63497 1.55168L8.21658 2.90903C7.87735 3.10297 7.5379 3.34534 7.24709 3.63616L6.13209 2.76357C5.88972 2.56964 5.59893 2.61806 5.45341 2.86065C5.2597 3.05437 5.30812 3.34539 5.55049 3.53911L6.71388 4.41169C6.51995 4.75092 6.37466 5.13882 6.27758 5.52669L4.7747 5.33276C4.48391 5.28433 4.28997 5.47827 4.24154 5.76906C4.19311 6.01143 4.38705 6.2538 4.67785 6.30223L6.0836 6.49616C6.0836 6.88404 6.13202 7.32036 6.22911 7.708L4.9202 8.24117C4.67783 8.33802 4.58097 8.62905 4.67783 8.8714C4.77469 9.06533 4.9202 9.16219 5.11413 9.16219C5.16256 9.16219 5.25965 9.16219 5.30807 9.11376L6.61698 8.5806C6.71384 8.77454 6.81092 8.91983 6.95621 9.06534C7.10172 9.21085 7.19857 9.35613 7.34409 9.50164L6.4715 10.6653C6.32599 10.8592 6.32599 11.1984 6.56836 11.3439C6.76229 11.4895 7.10152 11.4895 7.24703 11.2471L8.11962 10.1321C8.36199 10.2776 8.65278 10.4229 8.94382 10.52L5.25967 13.3315C4.58099 13.8647 4.43548 14.8828 4.96888 15.5615C5.50204 16.2886 6.52015 16.3857 7.19883 15.8523L8.2167 15.0767L8.21648 30.5403H5.50199C5.2112 30.5403 5.01725 30.7342 5.01725 31.025C5.01725 31.3158 5.21119 31.5098 5.50199 31.5098H34.8299C35.1207 31.5098 35.3147 31.3158 35.3147 31.025C35.3147 30.7342 35.1207 30.5403 34.8299 30.5403H32.1637V15.0762L33.1821 15.852ZM27.2677 7.22324V5.42956H29.6429V9.06531C29.5945 9.06531 27.1222 7.12617 27.2677 7.22324ZM9.86451 9.69537C8.99192 9.59851 8.2648 9.16221 7.73163 8.48353C5.9864 6.20513 7.82849 2.95725 10.64 3.34513C12.4821 3.5875 13.6939 5.33272 13.3547 7.07772L9.96135 9.69531H9.8645L9.86451 9.69537ZM6.6164 15.0764C6.32561 15.2703 5.93772 15.2219 5.74382 14.9795C5.54988 14.6887 5.59831 14.3008 5.84067 14.1069L19.8502 3.3454C20.0926 3.19989 20.3833 3.19989 20.6257 3.3454C36.9622 15.9974 18.2505 1.55172 34.5387 14.0589C34.8295 14.2529 34.8779 14.6408 34.6355 14.9315C34.4416 15.1739 34.0053 15.2707 33.7629 15.0284L32.0177 13.671L31.9693 13.6226L20.4805 4.84814C20.2865 4.70263 20.0441 4.70263 19.8986 4.84814L8.4098 13.6711C8.36137 13.6711 8.36137 13.7196 8.36137 13.7196L6.6164 15.0764ZM31.1937 30.5405H9.18566V14.3496L20.238 5.91456L31.2423 14.3496V30.5405H31.1937Z" fill="#C2B395" stroke="#C2B395" stroke-width="0.3"/>
<path d="M30.6129 2.90874C30.7584 2.86031 31.34 2.86031 31.6307 3.10267C31.7762 3.24818 31.8731 3.39347 31.9215 3.68451C31.9702 3.87823 32.1157 4.02374 32.3096 4.07217H32.4065C32.6004 4.07217 32.7457 3.97531 32.8428 3.78137C32.8428 3.73295 33.4246 2.66637 34.5393 2.81189C34.7817 2.86032 35.0725 2.66638 35.0725 2.42401C35.1209 2.18164 34.927 1.89085 34.6846 1.89085C33.7636 1.74534 33.0365 2.13322 32.5517 2.61798C32.4549 2.52112 32.3578 2.37561 32.2125 2.27875C31.4854 1.74559 30.5644 1.89087 30.4188 1.89087C30.1765 1.9393 29.9825 2.18166 30.031 2.42403C30.0796 2.76326 30.322 2.90877 30.6128 2.90877L30.6129 2.90874Z" fill="#C2B395" stroke="#C2B395" stroke-width="0.3"/>
<path d="M14.6158 15.8516C14.5189 15.9 12.6768 17.015 12.2889 19.051C12.0465 20.4083 12.5313 21.8625 13.6947 23.2683C13.6947 23.3167 13.7431 23.3167 13.7915 23.3167C13.7915 23.3652 15.2457 24.5286 12.6281 27.6796C12.4342 27.8735 12.4826 28.2127 12.6765 28.3582C12.8705 28.5522 13.2097 28.5037 13.3552 28.3098C14.6641 26.7585 15.2457 25.3527 15.1489 24.1409C15.0521 23.2683 14.6157 22.7835 14.4218 22.638C13.4523 21.4262 13.0644 20.2628 13.2584 19.2446C13.5492 17.6449 15.0521 16.7239 15.1005 16.7239C15.3428 16.5783 15.3913 16.2876 15.2944 16.0452C15.1491 15.803 14.8583 15.7062 14.6157 15.8515L14.6158 15.8516Z" fill="#C2B395" stroke="#C2B395" stroke-width="0.3"/>
<path d="M18.8813 15.8516C18.7844 15.9 16.9423 17.015 16.5544 19.051C16.312 20.4083 16.7968 21.8625 17.9602 23.2683C17.9602 23.3167 18.0086 23.3167 18.057 23.3167C18.057 23.3652 19.5112 24.5286 16.8936 27.6796C16.6997 27.8735 16.7481 28.2127 16.9421 28.3582C17.136 28.5522 17.4752 28.5037 17.6207 28.3098C18.9296 26.7585 19.5113 25.3527 19.4144 24.1409C19.3176 23.2683 18.8813 22.7835 18.6873 22.638C17.7178 21.4262 17.3299 20.2628 17.5239 19.2446C17.8147 17.6449 19.3176 16.7239 19.366 16.7239C19.6083 16.5783 19.6568 16.2876 19.5599 16.0452C19.4144 15.803 19.1236 15.7062 18.8812 15.8515L18.8813 15.8516Z" fill="#C2B395" stroke="#C2B395" stroke-width="0.3"/>
<path d="M20.821 19.0033C20.5786 20.3607 21.0633 21.8149 22.2267 23.2207L22.2751 23.2691C22.3236 23.3175 23.6809 24.5295 21.1117 27.6319C20.9178 27.8258 20.9662 28.1651 21.1602 28.3106C21.3541 28.5045 21.6933 28.4561 21.8388 28.2622C23.1478 26.7109 23.7294 25.3051 23.6325 24.0932C23.5357 23.2207 23.0994 22.7359 22.9054 22.5904C21.9359 21.3785 21.548 20.2151 21.742 19.197C22.0328 17.5973 23.5841 16.6762 23.5841 16.6762C23.8264 16.5307 23.8749 16.2399 23.778 15.9975C23.6325 15.7552 23.3417 15.7067 23.0993 15.8036C23.0507 15.9009 21.2086 16.9672 20.8209 19.0033L20.821 19.0033Z" fill="#C2B395" stroke="#C2B395" stroke-width="0.3"/>
<path d="M26.5411 23.3169C26.5895 23.3654 27.9468 24.5774 25.3777 27.6798C25.1837 27.8737 25.2321 28.2129 25.4261 28.3584C25.62 28.5524 25.9592 28.5039 26.1048 28.31C27.4137 26.7587 27.9953 25.3529 27.8984 24.1411C27.8016 23.2685 27.3653 22.7837 27.1713 22.6382C26.2018 21.4264 25.814 20.263 26.0079 19.2448C26.2987 17.6451 27.85 16.7241 27.85 16.7241C28.0924 16.5786 28.1408 16.2878 28.0439 16.0454C27.8984 15.803 27.6076 15.7546 27.3653 15.8515C27.2684 15.8999 25.4263 17.0148 25.0384 19.0509C24.8443 20.4082 25.329 21.814 26.4924 23.2684L26.541 23.3168L26.5411 23.3169Z" fill="#C2B395" stroke="#C2B395" stroke-width="0.3"/>
<path d="M18.7847 10.18C18.3968 10.5679 18.2028 11.0526 18.2028 11.5857C18.2028 12.7007 19.0754 13.5733 20.1904 13.5733C20.7236 13.5733 21.2083 13.3794 21.5962 12.9915C21.984 12.6036 22.178 12.1189 22.178 11.5857C22.178 11.0526 21.9841 10.5679 21.5962 10.18C21.2083 9.7921 20.7236 9.59814 20.1904 9.59814C19.6572 9.59814 19.1723 9.84051 18.7847 10.18ZM21.2083 11.6342C21.2083 11.925 21.1115 12.1673 20.9175 12.3613C20.7236 12.5552 20.4812 12.6521 20.1904 12.6521C19.6086 12.6521 19.1725 12.1674 19.1725 11.6342C19.1725 11.3434 19.2694 11.1011 19.4633 10.9071C19.6089 10.7616 19.8512 10.6163 20.1905 10.6163C20.4813 10.6163 20.7236 10.7132 20.9176 10.9071C21.1115 11.101 21.2084 11.3434 21.2084 11.6342L21.2083 11.6342Z" fill="#C2B395" stroke="#C2B395" stroke-width="0.3"/>
</g>
<defs>
<clipPath id="clip0_156_2363">
<rect width="39.9786" height="35.8651" fill="white"/>
</clipPath>
</defs>
</svg>
