<svg width="82" height="12" viewBox="0 0 82 12" fill="none" xmlns="http://www.w3.org/2000/svg">
<path d="M0.413 11C0.609 10.4633 0.812 9.89867 1.022 9.306C1.23667 8.71333 1.442 8.151 1.638 7.619L2.877 4.189C3.09633 3.573 3.297 3.01767 3.479 2.523C3.661 2.02367 3.843 1.522 4.025 1.018H5.691C5.873 1.53133 6.05267 2.03533 6.23 2.53C6.40733 3.02467 6.60567 3.58 6.825 4.196L8.057 7.633C8.253 8.18367 8.45367 8.75067 8.659 9.334C8.869 9.91267 9.06967 10.468 9.261 11H7.945C7.74433 10.4167 7.53667 9.817 7.322 9.201C7.112 8.58033 6.91367 7.997 6.727 7.451L4.907 2.159H4.788L2.954 7.402C2.75333 7.97133 2.54567 8.56867 2.331 9.194C2.11633 9.81467 1.904 10.4167 1.694 11H0.413ZM2.261 8.494L2.373 7.5H7.427L7.518 8.494H2.261ZM14.069 11C13.6023 11 13.1707 11 12.774 11C12.3773 11 12.025 11 11.717 11C11.409 11 11.157 11 10.961 11C10.961 10.4447 10.961 9.91033 10.961 9.397C10.961 8.88367 10.961 8.319 10.961 7.703V4.35C10.961 3.72933 10.961 3.15767 10.961 2.635C10.961 2.11233 10.961 1.57333 10.961 1.018C11.4883 1.018 12.0647 1.018 12.69 1.018C13.32 1.018 13.9663 1.018 14.629 1.018C15.2123 1.018 15.707 1.074 16.113 1.186C16.5237 1.29333 16.8573 1.44967 17.114 1.655C17.3707 1.85567 17.5597 2.10067 17.681 2.39C17.8023 2.67933 17.863 3.006 17.863 3.37C17.863 3.79467 17.786 4.16567 17.632 4.483C17.478 4.80033 17.268 5.064 17.002 5.274C16.7407 5.484 16.442 5.64033 16.106 5.743V5.869C16.4513 5.93433 16.778 6.05567 17.086 6.233C17.394 6.41033 17.6437 6.66467 17.835 6.996C18.0263 7.32267 18.122 7.74267 18.122 8.256C18.122 8.648 18.0543 9.012 17.919 9.348C17.7883 9.67933 17.569 9.96867 17.261 10.216C16.9577 10.4633 16.5447 10.657 16.022 10.797C15.504 10.9323 14.853 11 14.069 11ZM12.2 9.95H14.167C14.8017 9.95 15.3127 9.87767 15.7 9.733C16.092 9.58833 16.3743 9.383 16.547 9.117C16.7243 8.851 16.813 8.53367 16.813 8.165C16.813 7.55367 16.5983 7.11733 16.169 6.856C15.7397 6.59 15.1377 6.457 14.363 6.457H11.92V5.442H14.363C14.8763 5.442 15.294 5.358 15.616 5.19C15.9427 5.022 16.1807 4.80267 16.33 4.532C16.4793 4.26133 16.554 3.965 16.554 3.643C16.554 3.097 16.3837 2.698 16.043 2.446C15.707 2.194 15.2053 2.068 14.538 2.068H12.2C12.2 2.474 12.2 2.87767 12.2 3.279C12.2 3.68033 12.2 4.12133 12.2 4.602V7.465C12.2 7.93633 12.2 8.368 12.2 8.76C12.2 9.152 12.2 9.54867 12.2 9.95ZM24.5201 11.154C23.7315 11.154 23.0198 11.0257 22.3851 10.769C21.7551 10.5123 21.2185 10.153 20.7751 9.691C20.3318 9.22433 19.9911 8.67833 19.7531 8.053C19.5198 7.423 19.4031 6.737 19.4031 5.995C19.4031 4.987 19.6108 4.09567 20.0261 3.321C20.4415 2.54167 21.0178 1.93267 21.7551 1.494C22.4925 1.05533 23.3511 0.836 24.3311 0.836C24.6625 0.836 24.9845 0.859333 25.2971 0.906C25.6098 0.952666 25.9061 1.01567 26.1861 1.095C26.4661 1.17433 26.7251 1.26067 26.9631 1.354C27.2011 1.44733 27.4065 1.543 27.5791 1.641L27.4671 2.859C27.1031 2.64433 26.7485 2.47167 26.4031 2.341C26.0625 2.20567 25.7265 2.10767 25.3951 2.047C25.0685 1.98633 24.7488 1.956 24.4361 1.956C23.7175 1.956 23.0781 2.11933 22.5181 2.446C21.9581 2.77267 21.5171 3.23933 21.1951 3.846C20.8778 4.448 20.7191 5.16667 20.7191 6.002C20.7191 6.55733 20.8008 7.08 20.9641 7.57C21.1321 8.06 21.3795 8.49167 21.7061 8.865C22.0375 9.23833 22.4458 9.53233 22.9311 9.747C23.4211 9.957 23.9905 10.062 24.6391 10.062C24.8771 10.062 25.1151 10.048 25.3531 10.02C25.5911 9.98733 25.8268 9.93833 26.0601 9.873C26.2935 9.80767 26.5221 9.72133 26.7461 9.614C26.9748 9.502 27.1988 9.37133 27.4181 9.222L27.5161 10.426C27.3201 10.552 27.1031 10.6617 26.8651 10.755C26.6318 10.8483 26.3845 10.9253 26.1231 10.986C25.8665 11.042 25.6028 11.084 25.3321 11.112C25.0615 11.14 24.7908 11.154 24.5201 11.154ZM32.2618 11C32.2618 10.4447 32.2618 9.91033 32.2618 9.397C32.2618 8.88367 32.2618 8.319 32.2618 7.703V4.357C32.2618 3.727 32.2618 3.153 32.2618 2.635C32.2618 2.11233 32.2618 1.57333 32.2618 1.018C32.6818 1.018 33.0831 1.018 33.4658 1.018C33.8485 1.018 34.2288 1.018 34.6068 1.018C34.9848 1.018 35.3721 1.018 35.7688 1.018C36.5388 1.018 37.2225 1.13 37.8198 1.354C38.4171 1.57333 38.9188 1.89767 39.3248 2.327C39.7355 2.75167 40.0458 3.26967 40.2558 3.881C40.4705 4.49233 40.5778 5.18767 40.5778 5.967C40.5778 6.67167 40.4845 7.32967 40.2978 7.941C40.1111 8.54767 39.8125 9.082 39.4018 9.544C38.9958 10.0013 38.4615 10.3583 37.7988 10.615C37.1408 10.8717 36.3381 11 35.3908 11C34.9895 11 34.6185 11 34.2778 11C33.9371 11 33.6035 11 33.2768 11C32.9548 11 32.6165 11 32.2618 11ZM33.5288 9.943H35.3978C36.3498 9.943 37.1081 9.77033 37.6728 9.425C38.2375 9.075 38.6435 8.599 38.8908 7.997C39.1381 7.39033 39.2618 6.70667 39.2618 5.946C39.2618 5.36267 39.1871 4.833 39.0378 4.357C38.8931 3.881 38.6691 3.47267 38.3658 3.132C38.0671 2.79133 37.6821 2.53 37.2108 2.348C36.7441 2.166 36.1911 2.075 35.5518 2.075H33.5288C33.5288 2.47633 33.5288 2.87767 33.5288 3.279C33.5288 3.67567 33.5288 4.112 33.5288 4.588V7.458C33.5288 7.92467 33.5288 8.35633 33.5288 8.753C33.5288 9.14967 33.5288 9.54633 33.5288 9.943ZM42.5704 11C42.5704 10.4447 42.5704 9.91033 42.5704 9.397C42.5704 8.88367 42.5704 8.319 42.5704 7.703V4.35C42.5704 3.72933 42.5704 3.15767 42.5704 2.635C42.5704 2.11233 42.5704 1.57333 42.5704 1.018H48.7724V2.103C48.3057 2.103 47.8041 2.103 47.2674 2.103C46.7354 2.103 46.1054 2.103 45.3774 2.103H43.1094L43.8094 1.2C43.8094 1.76 43.8094 2.30133 43.8094 2.824C43.8094 3.342 43.8094 3.91133 43.8094 4.532V7.514C43.8094 8.12533 43.8094 8.69 43.8094 9.208C43.8094 9.72133 43.8094 10.2557 43.8094 10.811L43.1794 9.915H45.4894C46.1007 9.915 46.6771 9.915 47.2184 9.915C47.7644 9.915 48.2871 9.915 48.7864 9.915V11H42.5704ZM43.5364 6.471V5.414H45.4754C46.1194 5.414 46.6747 5.414 47.1414 5.414C47.6081 5.414 48.0584 5.414 48.4924 5.414V6.471C48.0351 6.471 47.5731 6.471 47.1064 6.471C46.6444 6.471 46.0984 6.471 45.4684 6.471H43.5364ZM53.7809 11.154C53.3656 11.154 52.9456 11.1143 52.5209 11.035C52.1009 10.9603 51.7112 10.867 51.3519 10.755C50.9972 10.6383 50.7102 10.5217 50.4909 10.405L50.6099 9.208C50.9226 9.38067 51.2469 9.53233 51.5829 9.663C51.9236 9.789 52.2689 9.887 52.6189 9.957C52.9736 10.027 53.3352 10.062 53.7039 10.062C54.1192 10.062 54.4926 10.006 54.8239 9.894C55.1599 9.77733 55.4236 9.59533 55.6149 9.348C55.8109 9.096 55.9089 8.767 55.9089 8.361C55.9089 8.00633 55.8086 7.71467 55.6079 7.486C55.4072 7.25267 55.1156 7.052 54.7329 6.884C54.3549 6.716 53.8952 6.548 53.3539 6.38C52.7192 6.17933 52.1779 5.96233 51.7299 5.729C51.2819 5.49567 50.9389 5.20867 50.7009 4.868C50.4676 4.52267 50.3509 4.084 50.3509 3.552C50.3509 3.034 50.4722 2.56967 50.7149 2.159C50.9622 1.74833 51.3286 1.42633 51.8139 1.193C52.2992 0.955 52.9012 0.836 53.6199 0.836C53.9186 0.836 54.2126 0.857 54.5019 0.898999C54.7959 0.941 55.0759 0.999333 55.3419 1.074C55.6079 1.144 55.8506 1.22333 56.0699 1.312C56.2892 1.40067 56.4759 1.49167 56.6299 1.585L56.5039 2.789C56.2192 2.59767 55.9182 2.439 55.6009 2.313C55.2836 2.18233 54.9686 2.08667 54.6559 2.026C54.3432 1.96067 54.0539 1.928 53.7879 1.928C53.4099 1.928 53.0622 1.984 52.7449 2.096C52.4276 2.208 52.1709 2.38067 51.9749 2.614C51.7836 2.84267 51.6879 3.139 51.6879 3.503C51.6879 3.82033 51.7696 4.084 51.9329 4.294C52.0962 4.504 52.3529 4.693 52.7029 4.861C53.0576 5.02433 53.5126 5.19467 54.0679 5.372C54.8706 5.624 55.5006 5.88067 55.9579 6.142C56.4199 6.39867 56.7466 6.69733 56.9379 7.038C57.1339 7.37867 57.2319 7.79633 57.2319 8.291C57.2319 8.837 57.1106 9.32467 56.8679 9.754C56.6299 10.1833 56.2566 10.524 55.7479 10.776C55.2392 11.028 54.5836 11.154 53.7809 11.154ZM59.1207 11C59.1207 10.4447 59.1207 9.91033 59.1207 9.397C59.1207 8.88367 59.1207 8.319 59.1207 7.703V4.357C59.1207 3.727 59.1207 3.153 59.1207 2.635C59.1207 2.11233 59.1207 1.57333 59.1207 1.018H60.4087C60.4087 1.57333 60.4087 2.11233 60.4087 2.635C60.4087 3.153 60.4087 3.727 60.4087 4.357V7.703C60.4087 8.319 60.4087 8.88367 60.4087 9.397C60.4087 9.91033 60.4087 10.4447 60.4087 11H59.1207ZM67.7348 11.147C66.8668 11.147 66.1015 11.0187 65.4388 10.762C64.7808 10.5007 64.2278 10.1367 63.7798 9.67C63.3318 9.20333 62.9912 8.65733 62.7578 8.032C62.5292 7.402 62.4148 6.72067 62.4148 5.988C62.4148 4.98467 62.6202 4.09567 63.0308 3.321C63.4462 2.54167 64.0295 1.93267 64.7808 1.494C65.5368 1.05533 66.4258 0.836 67.4478 0.836C67.7978 0.836 68.1362 0.859333 68.4628 0.906C68.7942 0.952666 69.1045 1.018 69.3938 1.102C69.6878 1.18133 69.9562 1.26767 70.1988 1.361C70.4462 1.45433 70.6585 1.54767 70.8358 1.641L70.7238 2.859C70.3365 2.64433 69.9608 2.47167 69.5968 2.341C69.2328 2.20567 68.8782 2.10767 68.5328 2.047C68.1875 1.98633 67.8515 1.956 67.5248 1.956C66.9695 1.956 66.4585 2.047 65.9918 2.229C65.5298 2.411 65.1285 2.677 64.7878 3.027C64.4472 3.377 64.1835 3.80167 63.9968 4.301C63.8148 4.80033 63.7238 5.365 63.7238 5.995C63.7238 6.56433 63.8032 7.09633 63.9618 7.591C64.1252 8.08567 64.3725 8.51967 64.7038 8.893C65.0398 9.26633 65.4668 9.558 65.9848 9.768C66.5028 9.97333 67.1165 10.076 67.8258 10.076C68.0872 10.076 68.3485 10.0643 68.6098 10.041C68.8712 10.013 69.1278 9.971 69.3798 9.915C69.6365 9.85433 69.8885 9.77967 70.1358 9.691C70.3832 9.59767 70.6235 9.488 70.8568 9.362L71.0038 10.552C70.8452 10.6267 70.6468 10.699 70.4088 10.769C70.1755 10.839 69.9142 10.9043 69.6248 10.965C69.3355 11.021 69.0298 11.0653 68.7078 11.098C68.3905 11.1307 68.0662 11.147 67.7348 11.147ZM69.8068 10.573C69.8068 10.0783 69.8068 9.64667 69.8068 9.278C69.8068 8.90933 69.8068 8.54067 69.8068 8.172C69.8068 7.73333 69.8068 7.346 69.8068 7.01C69.8068 6.674 69.8068 6.33333 69.8068 5.988H71.0038C71.0038 6.33333 71.0038 6.674 71.0038 7.01C71.0038 7.346 71.0038 7.73333 71.0038 8.172C71.0038 8.54067 71.0038 8.90933 71.0038 9.278C71.0038 9.642 71.0038 10.0667 71.0038 10.552L69.8068 10.573ZM73.2774 11C73.2774 10.4447 73.2774 9.91033 73.2774 9.397C73.2774 8.88367 73.2774 8.319 73.2774 7.703V4.357C73.2774 3.727 73.2774 3.153 73.2774 2.635C73.2774 2.11233 73.2774 1.57333 73.2774 1.018H74.4184C75.0158 1.858 75.5898 2.66767 76.1404 3.447C76.6911 4.22633 77.2348 4.994 77.7714 5.75L79.9344 8.802H80.0394V4.357C80.0394 3.727 80.0394 3.153 80.0394 2.635C80.0394 2.11233 80.0394 1.57333 80.0394 1.018H81.2434C81.2434 1.57333 81.2434 2.11233 81.2434 2.635C81.2434 3.153 81.2434 3.727 81.2434 4.357V7.703C81.2434 8.319 81.2434 8.88367 81.2434 9.397C81.2434 9.91033 81.2434 10.4447 81.2434 11H80.1164C79.6218 10.3 79.1014 9.565 78.5554 8.795C78.0094 8.02033 77.4098 7.171 76.7564 6.247L74.5794 3.174H74.4814V7.703C74.4814 8.319 74.4814 8.88367 74.4814 9.397C74.4814 9.91033 74.4814 10.4447 74.4814 11H73.2774Z" fill="#767676"/>
</svg>
