<svg width="26" height="22" viewBox="0 0 26 22" fill="none" xmlns="http://www.w3.org/2000/svg">
<path d="M12.9965 1.04004C10.068 1.04004 7.68925 3.4225 7.68925 6.34727C7.68925 6.42888 7.69115 8.33136 9.26327 10.323C9.27493 10.3328 10.1843 11.3413 10.1843 13.5139C10.1843 13.6927 10.3282 13.8365 10.5049 13.8365H15.4915C15.6703 13.8365 15.8141 13.6927 15.8141 13.5139C15.8141 11.3666 16.7236 10.3328 16.7469 10.3036C18.3074 8.33119 18.3074 6.42886 18.3074 6.35113C18.3056 3.42049 15.925 1.04007 12.9967 1.04007L12.9965 1.04004ZM16.2573 9.88404C16.2145 9.93067 15.2585 10.9879 15.175 13.1895H10.8182C10.7328 10.9879 9.78056 9.93068 9.75329 9.90344C8.34247 8.11753 8.33282 6.36875 8.33282 6.34932C8.33282 3.77639 10.4239 1.68337 12.9967 1.68337C15.5696 1.68337 17.6606 3.77628 17.6606 6.34932C17.6606 6.36871 17.6528 8.1176 16.2576 9.88401L16.2573 9.88404Z" fill="#C2B395" stroke="#C2B395" stroke-width="1.10453"/>
<path d="M15.2236 15.4634H10.7697C10.5909 15.4634 10.451 15.6111 10.451 15.786C10.451 15.9648 10.5909 16.1086 10.7697 16.1086H15.2257C15.4045 16.1086 15.5463 15.9648 15.5463 15.786C15.5464 15.613 15.4026 15.4634 15.2238 15.4634H15.2236Z" fill="#C2B395" stroke="#C2B395" stroke-width="1.10453"/>
</svg>
