<svg width="21" height="18" viewBox="0 0 21 18" fill="none" xmlns="http://www.w3.org/2000/svg">
<g clip-path="url(#clip0_291_4687)">
<path d="M18.2731 6.34457L10.5766 1.14083C10.4366 1.04616 10.2531 1.04616 10.1131 1.14083L2.41655 6.34457C2.32211 6.40449 2.25607 6.50009 2.23333 6.60954C2.21058 6.71899 2.2331 6.83306 2.29567 6.92565C2.35825 7.01825 2.4557 7.08151 2.56584 7.10114C2.67587 7.12077 2.78913 7.09502 2.88 7.02979L3.80686 6.40251V14.655H2.85517C2.62657 14.655 2.44138 14.8403 2.44138 15.0688C2.44138 15.2973 2.62657 15.4826 2.85517 15.4826H17.8345C18.0631 15.4826 18.2482 15.2973 18.2482 15.0688C18.2482 14.8403 18.063 14.655 17.8344 14.655H16.8827V6.40399L17.8095 7.03127C17.9004 7.0965 18.0137 7.12225 18.1237 7.10262C18.2338 7.08311 18.3313 7.01972 18.3939 6.92713C18.4564 6.83453 18.4789 6.72046 18.4562 6.61102C18.4335 6.50158 18.3674 6.40609 18.273 6.34605L18.2731 6.34457ZM13.1696 14.6553H7.52009V7.49846C7.52009 7.36869 7.62527 7.2634 7.75504 7.2634H12.9346C13.0643 7.2634 13.1695 7.36869 13.1695 7.49846L13.1696 14.6553ZM16.0552 14.6553H13.9972V7.49846C13.9972 7.21664 13.8853 6.94635 13.686 6.74708C13.4867 6.5478 13.2164 6.43581 12.9346 6.43581H7.75509C7.47326 6.43581 7.20297 6.54781 7.0037 6.74708C6.80443 6.94635 6.69256 7.21664 6.69256 7.49846V14.6553H4.63452V5.84477L10.3449 1.98644L16.0552 5.84477V14.6553Z" fill="#C2B395" stroke="#C2B395" stroke-width="0.940775"/>
</g>
<defs>
<clipPath id="clip0_291_4687">
<rect width="20.6823" height="18" fill="white"/>
</clipPath>
</defs>
</svg>
