<svg width="27" height="20" viewBox="0 0 27 20" fill="none" xmlns="http://www.w3.org/2000/svg">
<g clip-path="url(#clip0_292_5012)">
<path d="M4.89377 12.1191C4.83078 12.3922 4.85173 12.6862 4.99882 12.9172L6.97317 16.3408C7.2672 16.8449 7.89735 17.013 8.40131 16.7399L9.78757 15.9628C9.93466 16.0468 10.0816 16.1518 10.2706 16.2359V17.5592C10.2706 18.1472 10.7536 18.6093 11.3208 18.6093H15.0594C15.6474 18.6093 16.1095 18.1263 16.1095 17.5592V16.194C16.2146 16.131 16.3406 16.068 16.4456 16.005L17.7688 16.7821C18.273 17.0761 18.9241 16.9081 19.2181 16.4041L21.2344 13.0221C21.3814 12.7701 21.4233 12.4971 21.3394 12.224C21.2764 11.9509 21.0874 11.7199 20.8564 11.5729L19.5542 10.7958V10.5018V10.2917L20.8774 9.53558C21.1085 9.38849 21.2975 9.1576 21.3605 8.90544C21.4235 8.63236 21.4025 8.33832 21.2554 8.10728L19.2811 4.68371C18.987 4.17959 18.3569 4.01153 17.8529 4.28461L16.5086 5.04088C16.3826 4.95693 16.2355 4.89378 16.1095 4.80983V3.4447C16.1095 2.8566 15.6264 2.39453 15.0593 2.39453H11.3207C10.7326 2.39453 10.2706 2.87757 10.2706 3.4447V4.76794C10.1235 4.85189 9.97653 4.91503 9.85054 4.99898L8.50633 4.22175C8.00221 3.92771 7.37222 4.09575 7.07818 4.59973L5.04071 7.98141C4.89362 8.23341 4.85171 8.50649 4.91471 8.77957C4.97771 9.05266 5.16671 9.28369 5.39775 9.43064L6.69992 10.2077V10.5018V10.7119L5.37667 11.468C5.12483 11.6149 4.95679 11.846 4.89379 12.119L4.89377 12.1191ZM7.66613 11.615C7.87622 11.489 8.00222 11.2579 7.98112 11.0059C7.96017 10.8379 7.96017 10.6698 7.96017 10.5018C7.96017 10.3338 7.98112 10.1448 8.00222 9.95577C8.02317 9.70377 7.91827 9.47273 7.70818 9.34675L6.23799 8.48558L8.06524 5.44014L9.57747 6.32228C9.78757 6.44827 10.0605 6.42732 10.2706 6.28023C10.5226 6.09123 10.7536 5.94414 11.1106 5.81816C11.3626 5.73421 11.5307 5.48207 11.5307 5.23006V3.69686H14.8492V5.25114C14.8492 5.50314 14.9963 5.73418 15.2272 5.81827C15.5422 5.96536 15.8573 6.13326 16.1302 6.32239C16.3403 6.46948 16.5923 6.46948 16.8024 6.36443L18.3147 5.50326L20.0789 8.56982L18.5879 9.38864C18.3778 9.51464 18.2518 9.74568 18.2729 9.99766C18.2938 10.1657 18.2938 10.3337 18.2938 10.5018C18.2938 10.6698 18.2729 10.8588 18.2518 11.0478C18.2308 11.2998 18.3357 11.5309 18.5458 11.6568L20.016 12.539L18.2097 15.5844L16.7184 14.7023C16.5083 14.5763 16.2354 14.5972 16.0463 14.7232C15.7732 14.9122 15.5002 15.0593 15.2062 15.1853C14.9752 15.2904 14.8282 15.5214 14.8282 15.7734V17.3277L11.5097 17.3278V15.7946C11.5097 15.5215 11.3417 15.2905 11.0897 15.2065C10.7117 15.0594 10.4595 14.9125 10.1866 14.7024C9.99761 14.5553 9.72453 14.5344 9.49349 14.6604L7.96014 15.5425L6.1959 12.476L7.66613 11.615Z" fill="#C2B395" stroke="#C2B395" stroke-width="0.560024"/>
<path d="M13.1271 13.9253C15.0173 13.9253 16.5506 12.3921 16.5506 10.5017C16.5506 8.61148 15.0174 7.07812 13.1271 7.07812C11.2368 7.07812 9.70348 8.61133 9.70348 10.5017C9.70348 12.3919 11.2368 13.9253 13.1271 13.9253ZM13.1271 8.3384C14.3243 8.3384 15.2904 9.30462 15.2904 10.5017C15.2904 11.699 14.3242 12.6651 13.1271 12.6651C11.9298 12.6651 10.9637 11.6988 10.9637 10.5017C10.9637 9.30447 11.9298 8.3384 13.1271 8.3384Z" fill="#C2B395" stroke="#C2B395" stroke-width="0.560024"/>
</g>
<defs>
<clipPath id="clip0_292_5012">
<rect width="26.2447" height="20" fill="white"/>
</clipPath>
</defs>
</svg>
