<svg width="89" height="89" viewBox="0 0 89 89" fill="none" xmlns="http://www.w3.org/2000/svg">
<circle cx="44.5" cy="44.5" r="36.25" fill="#C2B395" stroke="white" stroke-width="0.5"/>
<g clip-path="url(#clip0_285_2545)">
<path d="M59.9503 28.8522C59.9002 28.8522 59.8527 28.861 59.8067 28.8733C59.7592 28.8604 59.7099 28.8535 59.6599 28.8535L28.3628 28.8532C28.3006 28.8532 28.2405 28.8645 28.1835 28.8841C28.1273 28.8651 28.068 28.8522 28.0051 28.8522C27.6967 28.8522 27.4463 29.1026 27.4463 29.411V61.4141C27.4463 61.7225 27.6967 61.9729 28.0051 61.9729H34.711C35.0194 61.9729 35.2697 61.723 35.2697 61.4141L35.27 42.6401H52.7635V61.4134C52.7635 61.7218 53.0133 61.9722 53.3222 61.9722H59.9499C60.2583 61.9722 60.5087 61.7224 60.5087 61.4134L60.5084 29.4103C60.5084 29.1019 60.2586 28.8516 59.9497 28.8516L59.9503 28.8522ZM58.7529 29.9711L52.9343 41.5232H35.1647L29.2747 29.9711H58.7529ZM28.5641 60.8553V31.0367L34.1526 41.9985V60.8553H28.5641ZM53.881 60.8553V42.1273L59.3912 31.1866V60.8553L53.881 60.8556V60.8553Z" fill="white"/>
</g>
<circle cx="44.5" cy="44.5" r="44" stroke="#C2B395"/>
<defs>
<clipPath id="clip0_285_2545">
<rect width="46" height="38.1608" fill="white" transform="translate(21 27)"/>
</clipPath>
</defs>
</svg>
