<svg width="89" height="89" viewBox="0 0 89 89" fill="none" xmlns="http://www.w3.org/2000/svg">
<circle cx="44.5" cy="44.5" r="36.25" fill="#C2B395" stroke="white" stroke-width="0.5"/>
<circle cx="44.5" cy="44.5" r="44" stroke="#C2B395"/>
<g clip-path="url(#clip0_285_2593)">
<path d="M60.4064 31.0322L49.6026 27.431H49.2245L38.6065 30.9722L27.9947 27.431C27.8112 27.3691 27.6092 27.3993 27.4521 27.5124C27.2948 27.6255 27.2019 27.8074 27.2024 28.0012V56.8114C27.2019 57.0695 27.3661 57.2991 27.6105 57.3816L38.4144 60.9829C38.5352 61.0223 38.6657 61.0223 38.7865 60.9829L49.4107 57.4417L60.0225 60.977C60.0841 60.9993 60.1489 61.0116 60.2146 61.0129C60.3738 61.0129 60.5265 60.9497 60.639 60.8372C60.7516 60.7246 60.8148 60.5719 60.8148 60.4127V31.6024C60.8153 31.3444 60.6511 31.1148 60.4067 31.0322L60.4064 31.0322ZM28.403 28.8356L38.0064 32.0347V59.5787L28.403 56.3796V28.8356ZM39.2069 32.0347L48.8103 28.8356V56.3796L39.2069 59.5787V32.0347ZM59.6142 59.5787L50.0107 56.3796V28.8356L59.6142 32.0347V59.5787Z" fill="white"/>
</g>
<defs>
<clipPath id="clip0_285_2593">
<rect width="48" height="39" fill="white" transform="translate(20 25)"/>
</clipPath>
</defs>
</svg>
