<svg width="89" height="89" viewBox="0 0 89 89" fill="none" xmlns="http://www.w3.org/2000/svg">
<circle cx="44.5" cy="44.5" r="36.25" fill="#C2B395" stroke="white" stroke-width="0.5"/>
<g clip-path="url(#clip0_285_2642)">
<path d="M64.282 51.6313C64.282 51.5406 64.2631 51.4545 64.2291 51.3762L61.2677 43.6234C61.2659 43.6181 61.2638 43.6127 61.2616 43.6074L58.287 35.8206C58.1923 35.5727 57.9544 35.4087 57.6889 35.4087H50.9837H50.9723H37.0492H37.0392H30.3336C30.0681 35.4087 29.8302 35.5723 29.7355 35.8206L26.7598 43.6098C26.758 43.6141 26.7566 43.6184 26.7548 43.6227L23.7831 51.4023C23.7695 51.4377 23.7591 51.4745 23.752 51.5127C23.7516 51.5148 23.7513 51.5173 23.7509 51.5195C23.7491 51.5288 23.7477 51.5384 23.7466 51.5481C23.7463 51.5513 23.7459 51.5545 23.7455 51.5577C23.7445 51.5666 23.7438 51.5752 23.743 51.5841C23.7427 51.5877 23.7423 51.5913 23.7423 51.5945C23.7416 51.6049 23.7413 51.6152 23.7413 51.6256V51.6306V53.876C23.7413 54.2297 24.0278 54.5163 24.3815 54.5163H63.6421C63.9958 54.5163 64.2824 54.2297 64.2824 53.876V51.6513V51.6313L64.282 51.6313ZM43.3712 36.6893V43.1999H36.259L37.5705 36.6893H43.3712ZM50.4523 36.6893L51.7639 43.1999H44.6517V36.6893H50.4523ZM44.6517 44.4803H52.0218L53.3333 50.9909L44.6517 50.9913V44.4803ZM43.3712 44.4803V50.9909L34.6895 50.9913L36.0011 44.4807L43.3712 44.4803ZM34.5477 52.2717H43.3712V53.2368H34.5477V52.2717ZM44.6514 52.2717H53.4749V53.2368H44.6514V52.2717ZM54.639 50.9913L53.3274 44.4807H60.2241L62.711 50.9913H54.639ZM59.7351 43.1999H53.0695L51.7579 36.6893H57.2477L59.7351 43.1999ZM30.7739 36.6893H36.264L34.9525 43.1999H28.2865L30.7739 36.6893ZM27.7975 44.4803H34.6942L33.3826 50.9909H25.3104L27.7975 44.4803ZM25.0208 52.2717H33.2666V53.2368H25.0208V52.2717ZM63.001 53.2368H54.7552V52.2717H63.001V53.2368Z" fill="white"/>
</g>
<circle cx="44.5" cy="44.5" r="44" stroke="#C2B395"/>
<defs>
<clipPath id="clip0_285_2642">
<rect width="64" height="36.6302" fill="white" transform="translate(12 26.1445)"/>
</clipPath>
</defs>
</svg>
