<svg width="14" height="17" viewBox="0 0 14 17" fill="none" xmlns="http://www.w3.org/2000/svg">
<path fill-rule="evenodd" clip-rule="evenodd" d="M6.83942 16.9675L7.33925 16.5311C11.5424 12.8609 13.6788 9.65631 13.6788 6.83941C13.6788 2.85026 10.5653 0 6.83942 0C3.11349 0 0 2.85026 0 6.83941C0 9.65631 2.13641 12.8609 6.33958 16.5311L6.83942 16.9675ZM6.83921 14.9426C3.27254 11.7282 1.51967 9.00431 1.51967 6.83908C1.51967 3.72076 3.92419 1.51953 6.83921 1.51953C9.75424 1.51953 12.1588 3.72076 12.1588 6.83908C12.1588 9.00431 10.4059 11.7282 6.83921 14.9426ZM6.8397 3.04025C8.93821 3.04025 10.6394 4.74142 10.6394 6.83992C10.6394 8.93843 8.93821 10.6396 6.8397 10.6396C4.7412 10.6396 3.04003 8.93843 3.04003 6.83992C3.04003 4.74142 4.7412 3.04025 6.8397 3.04025ZM4.55969 6.83953C4.55969 5.58042 5.5804 4.55972 6.8395 4.55972C8.0986 4.55972 9.1193 5.58042 9.1193 6.83953C9.1193 8.09863 8.0986 9.11933 6.8395 9.11933C5.5804 9.11933 4.55969 8.09863 4.55969 6.83953Z" fill="#C2B395"/>
</svg>
