<svg width="17" height="18" viewBox="0 0 17 18" fill="none" xmlns="http://www.w3.org/2000/svg">
<path fill-rule="evenodd" clip-rule="evenodd" d="M12.1123 0.961914H5.48558C2.79241 0.961914 0.601364 3.15296 0.601364 5.84613V12.4729C0.601364 15.1661 2.79241 17.3571 5.48558 17.3571H12.1123C14.8055 17.3571 16.9966 15.1661 16.9966 12.4729V5.84613C16.9965 3.15296 14.8055 0.961914 12.1123 0.961914ZM15.3471 12.4732C15.3471 14.2597 13.8988 15.708 12.1123 15.708H5.4855C3.69895 15.708 2.25064 14.2597 2.25064 12.4732V5.84641C2.25064 4.05983 3.69895 2.61155 5.4855 2.61155H12.1123C13.8988 2.61155 15.3471 4.05983 15.3471 5.84641V12.4732ZM4.55815 9.16027C4.55815 6.82215 6.46038 4.91992 8.79853 4.91992C11.1367 4.91992 13.0389 6.82212 13.0389 9.16027C13.0389 11.4984 11.1367 13.4007 8.79853 13.4007C6.46038 13.4007 4.55815 11.4984 4.55815 9.16027ZM8.79871 11.7502C7.36771 11.7502 6.20768 10.5902 6.20768 9.15918C6.20768 7.72818 7.36774 6.56815 8.79871 6.56815C10.2297 6.56815 11.3897 7.72818 11.3897 9.15918C11.3897 10.5901 10.2297 11.7502 8.79871 11.7502ZM14.0637 4.9487C14.0637 5.50987 13.6088 5.96478 13.0476 5.96478C12.4864 5.96478 12.0315 5.50987 12.0315 4.9487C12.0315 4.38754 12.4864 3.93262 13.0476 3.93262C13.6088 3.93262 14.0637 4.38754 14.0637 4.9487Z" fill="#C2B395"/>
</svg>
