<svg width="19" height="20" viewBox="0 0 19 20" fill="none" xmlns="http://www.w3.org/2000/svg">
<path fill-rule="evenodd" clip-rule="evenodd" d="M17.6364 18H2.36364C1.61364 18 1 17.55 1 17C1 16.45 1.61364 16 2.36364 16H17.6364C18.3864 16 19 16.45 19 17C19 17.55 18.3864 18 17.6364 18Z" fill="white"/>
<path fill-rule="evenodd" clip-rule="evenodd" d="M9.55556 9H18.4444C18.75 9 19 9.45 19 10C19 10.55 18.75 11 18.4444 11H9.55556C9.25 11 9 10.55 9 10C9 9.45 9.25 9 9.55556 9Z" fill="white"/>
<path fill-rule="evenodd" clip-rule="evenodd" d="M18 4H2C1.45 4 1 3.55 1 3C1 2.45 1.45 2 2 2H18C18.55 2 19 2.45 19 3C19 3.55 18.55 4 18 4Z" fill="white"/>
</svg>
