<svg width="16" height="16" viewBox="0 0 16 16" fill="none" xmlns="http://www.w3.org/2000/svg">
<path fill-rule="evenodd" clip-rule="evenodd" d="M6.68778 4.78401C7.0788 4.25707 7.21902 3.70171 6.77678 3.21151C5.78438 1.82286 5.11695 0.964119 4.69832 0.550571C3.90243 -0.235635 2.59318 -0.129288 1.90389 0.5499C1.53366 0.914698 1.40832 1.03997 1.02818 1.42609C-1.08927 3.54468 0.202058 8.0233 3.63489 11.4595C7.06694 14.8949 11.5451 16.187 13.667 14.0639C14.0178 13.7257 14.3148 13.4286 14.5491 13.181C15.2246 12.467 15.3271 11.2155 14.5446 10.4025C14.1434 9.98563 13.3246 9.35043 11.8775 8.31533C11.4343 7.91902 10.9088 8.00492 10.427 8.32099C10.1953 8.47303 10.0266 8.62683 9.70816 8.9456L9.12986 9.52421C9.0537 9.60042 8.01945 9.08247 7.01548 8.07752C6.01096 7.07201 5.49337 6.03771 5.56918 5.9619L6.14787 5.38289C6.24891 5.28176 6.29721 5.23279 6.35916 5.16768C6.48822 5.03204 6.59508 4.90895 6.68778 4.78401ZM10.1964 10.591L10.7748 10.0123C10.9501 9.83682 11.0636 9.72895 11.156 9.65457C12.4237 10.5649 13.1579 11.1373 13.4577 11.4489C13.6378 11.636 13.6098 11.9773 13.4533 12.1427C13.2367 12.3717 12.9553 12.6532 12.61 12.9863C11.2379 14.359 7.62295 13.316 4.70164 10.3919C1.77941 7.46676 0.736961 3.85131 2.09869 2.48883C2.4773 2.1043 2.59726 1.9844 2.9622 1.62481C3.09903 1.48998 3.47176 1.45971 3.63821 1.62414C3.96052 1.94253 4.5584 2.70807 5.43792 3.93322C5.39239 3.98975 5.33552 4.05363 5.26631 4.12636C5.21552 4.17975 5.1732 4.22264 5.08069 4.31525L4.50257 4.89369C3.51907 5.87711 4.35665 7.55084 5.9483 9.14405C7.53886 10.7362 9.21322 11.5747 10.1964 10.591ZM8.79939 0.0529348C12.0622 0.448431 14.6494 3.03561 15.0449 6.29846L13.554 6.54695C13.2662 3.91877 11.1791 1.83168 8.55091 1.54382L8.79939 0.0529348ZM8.30176 3.03602C10.2953 3.21433 11.8831 4.8021 12.0614 6.79568L10.5657 7.04496C10.5023 5.68581 9.41163 4.59516 8.05248 4.53169L8.30176 3.03602Z" fill="#C2B395"/>
</svg>
