<svg width="20" height="20" viewBox="0 0 20 20" fill="none" xmlns="http://www.w3.org/2000/svg">
<path d="M19.5 10.0268C19.5 15.1384 15.3244 19.2821 10.1727 19.2821C8.53721 19.2821 7.00074 18.8641 5.66399 18.1305L0.5 19.7715L2.18361 14.8057C1.33431 13.4111 0.845167 11.7754 0.845167 10.0268C0.845167 4.91517 5.02116 0.771484 10.1727 0.771484C15.3249 0.771484 19.5 4.91517 19.5 10.0268ZM10.1727 2.24546C5.84829 2.24546 2.33076 5.73618 2.33076 10.0268C2.33076 11.7294 2.88577 13.3062 3.82458 14.5889L2.84481 17.4788L5.85842 16.521C7.09659 17.334 8.57986 17.8082 10.1729 17.8082C14.4967 17.8082 18.0148 14.3179 18.0148 10.0272C18.0148 5.73661 14.4969 2.24546 10.1727 2.24546ZM14.8828 12.1584C14.8252 12.064 14.6729 12.007 14.4445 11.8937C14.2157 11.7803 13.0913 11.2312 12.8823 11.1558C12.6727 11.0803 12.5198 11.0423 12.3676 11.2692C12.2154 11.4964 11.7771 12.007 11.6435 12.1584C11.5101 12.3102 11.3769 12.3292 11.148 12.2156C10.9196 12.1022 10.183 11.8624 9.30967 11.0898C8.6301 10.4885 8.17114 9.74624 8.03772 9.51887C7.90451 9.29193 8.02379 9.16927 8.138 9.05633C8.24102 8.95457 8.36684 8.79138 8.48106 8.65902C8.59569 8.52644 8.63369 8.43207 8.70948 8.2805C8.78611 8.12913 8.7479 7.99676 8.69048 7.88297C8.63348 7.76961 8.17579 6.65325 7.98537 6.19894C7.79494 5.74505 7.60473 5.82063 7.4711 5.82063C7.33789 5.82063 7.18526 5.80163 7.03283 5.80163C6.88041 5.80163 6.63257 5.85842 6.42293 6.08536C6.21351 6.31252 5.62303 6.86141 5.62303 7.97755C5.62303 9.09391 6.44193 10.1725 6.55657 10.3236C6.67078 10.4748 8.13779 12.8401 10.4621 13.7485C12.7867 14.6565 12.7867 14.3535 13.2059 14.3155C13.6248 14.2777 14.5583 13.7669 14.7496 13.2374C14.9396 12.7071 14.9396 12.253 14.8828 12.1584Z" fill="#C2B395"/>
</svg>
