<svg width="58" height="45" viewBox="0 0 58 45" fill="none" xmlns="http://www.w3.org/2000/svg">
<g clip-path="url(#clip0_222_258)">
<path d="M18.754 22.679H16.2761C16.0866 21.2423 14.8541 20.1286 13.363 20.1286C11.7412 20.1286 10.4215 21.4448 10.4215 23.0629C10.4215 24.681 11.7409 25.9972 13.363 25.9972C14.8006 25.9972 15.9982 24.9623 16.2524 23.6008H18.7587C18.8875 26.0586 19.8958 28.2886 21.4746 29.9878L19.73 31.72C19.2165 31.3259 18.5922 31.1089 17.9344 31.1069H17.9256C17.1408 31.1069 16.4039 31.4095 15.8502 31.9595C14.7034 33.0986 14.708 34.9556 15.8599 36.0995C16.4379 36.6734 17.1965 36.9605 17.9538 36.9605C18.7063 36.9605 19.4578 36.6769 20.0292 36.1095C21.0446 35.1009 21.1557 33.5304 20.3686 32.3897L22.1331 30.6379C23.8511 32.1833 26.0955 33.1603 28.563 33.2697V35.6926C27.1351 35.8974 26.0333 37.112 26.0333 38.5794C26.0333 40.1897 27.3588 41.4999 28.9884 41.4999C30.6179 41.4999 31.9434 40.1897 31.9434 38.5794C31.9434 37.1387 30.8815 35.9414 29.4911 35.7045V33.2701C31.9589 33.1604 34.2031 32.1837 35.921 30.6382L37.6409 32.346C36.8195 33.4902 36.9186 35.0884 37.9475 36.1101C38.519 36.6776 39.2701 36.9612 40.0229 36.9612C40.7802 36.9612 41.5388 36.6741 42.1168 36.1002C43.2688 34.9563 43.2733 33.0989 42.1265 31.9602C41.5725 31.4101 40.836 31.1076 40.0511 31.1076H40.0424C39.4029 31.1095 38.7958 31.315 38.2907 31.6879L36.5793 29.9885C38.158 28.2893 39.1663 26.0598 39.2952 23.6015H41.7242C41.9783 24.9634 43.176 25.9979 44.6135 25.9979C46.2353 25.9979 47.5547 24.6817 47.5547 23.0636C47.5547 21.4455 46.2353 20.1293 44.6135 20.1293C43.1225 20.1293 41.8899 21.243 41.7004 22.6798H39.2996C39.2067 20.2 38.2224 17.943 36.6541 16.2188L38.3804 14.5046C38.8826 14.8464 39.4664 15.019 40.0507 15.019C40.8032 15.019 41.5547 14.7351 42.1265 14.1677C43.2733 13.0289 43.2691 11.1719 42.1168 10.0277C40.9645 8.88313 39.0943 8.87893 37.9475 10.018C36.892 11.0657 36.8146 12.7212 37.7066 13.8706L36.001 15.5643C34.2729 13.9764 31.9974 12.9691 29.4911 12.8578V10.4238C30.8814 10.1868 31.9434 8.98953 31.9434 7.54887C31.9434 5.9385 30.6179 4.62805 28.9883 4.62805C27.3591 4.62805 26.0332 5.93817 26.0332 7.54887C26.0332 9.0162 27.1347 10.2305 28.5629 10.4356V12.8582C26.0563 12.9694 23.7811 13.9767 22.0531 15.5646L20.3031 13.8269C21.1595 12.6797 21.0714 11.0533 20.0295 10.0187C18.8827 8.8799 17.0126 8.88377 15.8602 10.0283C14.7079 11.1725 14.7037 13.0295 15.8505 14.1683C16.4045 14.7184 17.1411 15.0209 17.9263 15.0209C17.9288 15.0209 17.9318 15.0209 17.9347 15.0206C18.5554 15.019 19.1456 14.8254 19.642 14.4731L21.4007 16.2195C19.8308 17.9425 18.8465 20.1991 18.7538 22.6791L18.754 22.679ZM13.3628 25.0755C12.2525 25.0755 11.3499 24.1727 11.3499 23.0629C11.3499 21.9531 12.2529 21.0503 13.3628 21.0503C14.4726 21.0503 15.3757 21.9531 15.3757 23.0629C15.3757 24.1727 14.4726 25.0755 13.3628 25.0755ZM19.3724 35.4574C18.5879 36.2364 17.306 36.2319 16.5157 35.4474C15.7257 34.663 15.7211 33.3902 16.506 32.6108C16.8968 32.2231 17.4103 32.0292 17.9251 32.0292C18.4447 32.0292 18.9657 32.2266 19.3627 32.6208C20.153 33.4052 20.1572 34.6781 19.3724 35.4574ZM31.0146 38.5786C31.0146 39.6807 30.1055 40.5773 28.9878 40.5773C27.8702 40.5773 26.9613 39.6806 26.9613 38.5786C26.9613 37.4764 27.8705 36.5798 28.9878 36.5798C30.1051 36.5798 31.0146 37.4765 31.0146 38.5786ZM40.051 32.0293C40.5658 32.0293 41.0793 32.2231 41.4701 32.6109C42.2546 33.3902 42.2504 34.663 41.4604 35.4475C40.67 36.2326 39.3885 36.2368 38.6037 35.4574C37.8192 34.6781 37.8234 33.4053 38.6134 32.6208C39.0103 32.2267 39.5313 32.0293 40.051 32.0293ZM44.6133 21.0507C45.7232 21.0507 46.6262 21.9534 46.6262 23.0632C46.6262 24.173 45.7232 25.0758 44.6133 25.0758C43.5034 25.0758 42.6004 24.173 42.6004 23.0632C42.6004 21.9534 43.5034 21.0507 44.6133 21.0507ZM38.6037 10.6688C39.3885 9.88911 40.67 9.89394 41.4604 10.6784C42.2507 11.4632 42.2549 12.7357 41.4701 13.515C40.6849 14.2944 39.4034 14.2895 38.6134 13.5054C37.823 12.7206 37.8188 11.4481 38.6037 10.6688ZM26.9614 7.54728C26.9614 6.44481 27.8706 5.54851 28.9879 5.54851C30.1055 5.54851 31.0147 6.44522 31.0147 7.54728C31.0147 8.64942 30.1055 9.54604 28.9879 9.54604C27.8706 9.54604 26.9614 8.64933 26.9614 7.54728ZM29.0268 13.7667C34.1848 13.7667 38.3814 17.9369 38.3814 23.063C38.3814 28.1891 34.1852 32.3593 29.0268 32.3593C23.8687 32.3593 19.6722 28.1891 19.6722 23.063C19.6725 17.937 23.8687 13.7667 29.0268 13.7667ZM16.5067 13.515C15.7219 12.7356 15.7261 11.4631 16.5164 10.6783C16.9134 10.2842 17.434 10.0871 17.9537 10.0871C18.4685 10.0871 18.9823 10.281 19.3728 10.6687C20.1573 11.448 20.1531 12.7205 19.3631 13.5053C18.5734 14.2895 17.2919 14.2946 16.5067 13.515V13.515Z" fill="#C2B395" stroke="#C2B395" stroke-width="0.35"/>
<path d="M22.4159 21.1573L24.9796 24.1585L24.6824 28.0831C24.6704 28.2426 24.7423 28.3969 24.8724 28.4908C24.953 28.549 25.0489 28.5789 25.1454 28.5789C25.2049 28.5789 25.2648 28.5676 25.3215 28.5445L28.9882 27.0508L32.6553 28.5445C32.8036 28.6056 32.9739 28.5847 33.1044 28.4908C33.2346 28.3969 33.3064 28.2429 33.2945 28.0831L32.9972 24.1585L35.5609 21.1573C35.6649 21.0354 35.6982 20.8686 35.6483 20.7165C35.5985 20.5647 35.4732 20.449 35.3168 20.4111L31.4661 19.479L29.3833 16.1306C29.2143 15.8586 28.7626 15.8586 28.5936 16.1306L26.5111 19.479L22.6604 20.4111C22.504 20.449 22.3787 20.5644 22.3288 20.7165C22.279 20.8686 22.312 21.0351 22.4159 21.1573H22.4159ZM26.9154 20.3297C27.0339 20.3008 27.1362 20.2271 27.2003 20.1239L28.9882 17.2497L30.7761 20.1239C30.8398 20.2271 30.9425 20.3008 31.061 20.3297L34.3664 21.1296L32.166 23.7061C32.087 23.7987 32.0479 23.918 32.0572 24.0389L32.3121 27.408L29.1643 26.1255C29.1079 26.1027 29.048 26.0911 28.9881 26.0911C28.9282 26.0911 28.8683 26.1027 28.812 26.1255L25.6642 27.408L25.919 24.0389C25.9284 23.918 25.8892 23.7984 25.8102 23.7061L23.6098 21.1296L26.9154 20.3297Z" fill="#C2B395" stroke="#C2B395" stroke-width="0.35"/>
</g>
<defs>
<clipPath id="clip0_222_258">
<rect width="58" height="45" fill="white"/>
</clipPath>
</defs>
</svg>
