<svg width="42" height="34" viewBox="0 0 42 34" fill="none" xmlns="http://www.w3.org/2000/svg">
<g clip-path="url(#clip0_192_617)">
<path d="M37.1622 10.4313L31.9014 3.74834C31.8173 3.64191 31.6954 3.5722 31.5613 3.55431L31.5616 3.55336L20.8594 2.06605C20.8101 2.05852 20.76 2.05875 20.7108 2.06653L10.4346 3.59483C10.3047 3.6212 10.1871 3.68972 10.0996 3.78957L4.83883 10.4726C4.68485 10.6593 4.6872 10.9301 4.84399 11.1145L4.83485 11.1215L20.4715 31.4931C20.5706 31.6221 20.7234 31.6979 20.8856 31.6986C21.048 31.6991 21.2013 31.6242 21.3011 31.4957L37.1645 11.0831L37.1556 11.0763H37.1559C37.3131 10.8912 37.3159 10.6197 37.1627 10.4316L37.1622 10.4313ZM35.8678 10.4874L28.5826 12.8177L31.6409 5.11832L35.8678 10.4874ZM21.0184 6.7312L26.537 13.1351L15.47 13.1692L21.0184 6.7312ZM27.5146 12.6585L22.1312 6.41194L30.6464 4.77513L27.5146 12.6585ZM26.908 14.1889L20.8942 29.405L15.0812 14.2251L26.908 14.1889ZM14.4856 12.6997L11.3539 4.81588L19.8691 6.45269L14.4856 12.6997ZM13.918 14.126L19.3451 28.2992L6.69234 11.8148L13.918 14.126ZM28.0792 14.086L35.2912 11.7788L22.471 28.2753L28.0792 14.086ZM20.7904 3.12108L28.261 4.15909C20.9314 5.56821 21.0328 5.54018 20.9332 5.58328L13.6504 4.18333L20.7904 3.12108ZM10.36 5.15937L13.4188 12.8588L6.13296 10.5282L10.36 5.15937Z" fill="#C2B395"/>
</g>
<defs>
<clipPath id="clip0_192_617">
<rect width="42" height="34" fill="white"/>
</clipPath>
</defs>
</svg>
