<svg width="46" height="40" viewBox="0 0 46 40" fill="none" xmlns="http://www.w3.org/2000/svg">
<g clip-path="url(#clip0_192_1022)">
<path d="M34.7023 9.54742C34.6691 9.38956 34.5701 9.25302 34.4302 9.17206C34.2899 9.09161 34.1224 9.07359 33.9691 9.12435C33.5574 9.25886 23.8706 12.495 21.9956 18.6946C21.2669 21.1046 21.8225 23.6148 23.6432 26.1643C21.4385 29.1639 19.3756 30.7848 16.1696 31.7396C15.6691 30.7145 15.3493 29.5384 15.1445 28.0619C17.9584 26.7691 19.6857 24.8933 20.2554 22.4624C21.736 16.1465 14.9252 8.47158 14.6346 8.14803C14.4187 7.90769 14.0045 7.90769 13.7885 8.14803C13.4979 8.47136 6.68718 16.1466 8.16774 22.4624C8.78573 25.0986 10.7486 27.0911 14.0014 28.3847C14.0121 28.389 14.0235 28.3875 14.0344 28.391C14.461 31.3673 15.3526 33.2118 17.2205 35.0804C17.3319 35.1916 17.4774 35.2472 17.6228 35.2472C17.7682 35.2472 17.9136 35.1916 18.0248 35.0807C18.2469 34.8589 18.2469 34.499 18.0248 34.2767C17.5284 33.7803 17.1088 33.2805 16.7528 32.7506C20.0442 31.7156 22.2233 29.9655 24.4629 26.9558C25.154 27.0563 25.8146 27.1071 26.4435 27.1071C28.9378 27.1071 30.9394 26.3195 32.4102 24.7552C36.8472 20.0346 34.7917 9.97363 34.7019 9.54742L34.7023 9.54742ZM9.27525 22.2051C8.13014 17.3259 12.7591 11.184 14.2117 9.40838C15.6644 11.1836 20.2934 17.3257 19.1482 22.2051C18.6848 24.1793 17.289 25.7435 15.0091 26.8736C14.9353 26.068 14.885 25.1815 14.8513 24.1932L16.74 23.2489C17.0209 23.1085 17.1346 22.7669 16.9943 22.486C16.8542 22.2051 16.5133 22.0911 16.2314 22.2317L14.8178 22.9385C14.8076 22.4426 14.8 21.9228 14.7947 21.379L16.74 20.4064C17.0209 20.2661 17.1346 19.9244 16.9943 19.6435C16.8542 19.3628 16.5133 19.2491 16.2314 19.3892L14.7855 20.112C14.7804 19.0019 14.7802 17.8002 14.7802 16.4868C14.7802 16.1729 14.5256 15.9183 14.2117 15.9183C13.8977 15.9183 13.6432 16.1729 13.6432 16.4868C13.6432 17.7989 13.6434 19.0019 13.6488 20.1176L12.192 19.3892C11.9103 19.2491 11.5697 19.3628 11.4291 19.6435C11.2887 19.9245 11.4025 20.2658 11.6834 20.4064L13.6574 21.3934C13.6627 21.9444 13.6701 22.472 13.6803 22.976L12.1918 22.2319C11.9101 22.091 11.5695 22.2052 11.4289 22.4862C11.2885 22.7671 11.4022 23.1085 11.6832 23.2491L13.7153 24.2653C13.7506 25.3041 13.8028 26.2416 13.8818 27.0905C11.3256 25.9474 9.7693 24.3097 9.2752 22.205L9.27525 22.2051ZM31.5817 23.976C30.1146 25.5368 27.969 26.1736 25.2204 25.8947C25.7171 25.1724 26.2236 24.3864 26.7515 23.5316L28.9961 23.6667C29.0078 23.6674 29.0194 23.6677 29.0309 23.6677C29.3293 23.6677 29.5796 23.4349 29.5976 23.1334C29.6164 22.82 29.3778 22.5507 29.0644 22.532L27.4205 22.433C27.6817 21.9977 27.9499 21.5439 28.2246 21.0754L30.4115 21.2071C30.4231 21.2079 30.4348 21.2081 30.4462 21.2081C30.7447 21.2081 30.9949 20.9754 31.013 20.6739C31.0317 20.3605 30.7932 20.0912 30.4797 20.0724L28.8659 19.9752C29.3133 19.2037 29.78 18.3921 30.2737 17.5337L30.6754 16.8353C30.832 16.5632 30.7384 16.2158 30.466 16.0592C30.194 15.9026 29.8465 15.9965 29.69 16.2686L29.2879 16.967C28.7938 17.8261 28.3286 18.6352 27.8842 19.4017L26.9982 18.0553C26.8257 17.7934 26.4737 17.7211 26.2107 17.8929C25.9483 18.0654 25.8757 18.418 26.0483 18.6804L27.2449 20.4988C26.9736 20.962 26.7097 21.4092 26.4531 21.8373L25.5828 20.5148C25.4102 20.2529 25.0582 20.1803 24.7953 20.3524C24.5328 20.525 24.4603 20.8775 24.6328 21.1399L25.7998 22.9132C25.2952 23.7329 24.814 24.4831 24.3455 25.1699C22.9251 23.0401 22.4936 20.9767 23.0829 19.0258C24.529 14.2385 31.5655 11.2397 33.7044 10.4282C34.0754 12.6936 35.0119 20.3266 31.5814 23.976L31.5817 23.976Z" fill="#C2B395"/>
<path d="M22.7398 1.13698C13.3359 1.13698 5.68496 8.78796 5.68496 18.1919C5.68496 22.9043 7.56483 27.2904 10.9778 30.5422C11.2052 30.7587 11.5651 30.7503 11.7818 30.5227C11.9983 30.2953 11.9897 29.9354 11.7623 29.7186C8.57618 26.684 6.82197 22.59 6.82197 18.1921C6.82197 9.4152 13.9629 2.27424 22.7399 2.27424C31.5168 2.27424 38.6578 9.4152 38.6578 18.1921C38.6578 22.5901 36.9035 26.6838 33.7177 29.7186C33.4903 29.9351 33.4817 30.2953 33.6981 30.5227C33.8101 30.6397 33.9598 30.6988 34.1098 30.6988C34.2509 30.6988 34.3918 30.6468 34.5019 30.5419C37.9149 27.2903 39.7948 22.9046 39.7948 18.1916C39.7948 8.7877 32.1438 1.13672 22.7399 1.13672L22.7398 1.13698Z" fill="#C2B395"/>
</g>
<defs>
<clipPath id="clip0_192_1022">
<rect width="45.4635" height="39.0801" fill="white"/>
</clipPath>
</defs>
</svg>
