<svg width="42" height="34" viewBox="0 0 42 34" fill="none" xmlns="http://www.w3.org/2000/svg">
<g clip-path="url(#clip0_288_3147)">
<path d="M35.144 1.8032C35.0996 1.8032 35.0574 1.81094 35.0167 1.82187C34.9746 1.81048 34.9308 1.80433 34.8864 1.80433L7.13361 1.80411C7.07851 1.80411 7.02522 1.81413 6.97467 1.83143C6.9248 1.81458 6.8722 1.8032 6.81642 1.8032C6.54294 1.8032 6.32093 2.02521 6.32093 2.29869V30.6776C6.32093 30.9511 6.54294 31.1731 6.81642 31.1731H12.7629C13.0364 31.1731 13.2584 30.9515 13.2584 30.6776L13.2586 14.0296H28.771V30.677C28.771 30.9505 28.9926 31.1725 29.2665 31.1725H35.1437C35.4171 31.1725 35.6392 30.9509 35.6392 30.677L35.6389 2.2981C35.6389 2.02463 35.4174 1.80261 35.1434 1.80261L35.144 1.8032ZM34.0822 2.79535L28.9225 13.0392H13.1653L7.94232 2.79535H34.0822ZM7.31217 30.1821V3.74028L12.2678 13.4607V30.1821H7.31217ZM29.7621 30.1821V13.5749L34.6482 3.87319V30.1821L29.7621 30.1823V30.1821Z" fill="#C2B395" stroke="#C2B395" stroke-width="0.4"/>
</g>
<defs>
<clipPath id="clip0_288_3147">
<rect width="40.7907" height="33.8392" fill="white" transform="translate(0.604652 0.160889)"/>
</clipPath>
</defs>
</svg>
