<svg width="55" height="42" viewBox="0 0 55 42" fill="none" xmlns="http://www.w3.org/2000/svg">
<g clip-path="url(#clip0_288_3534)">
<path d="M40.4336 29.4685H34.9511C34.5726 29.4685 34.2657 29.7754 34.2657 30.1538V37.007C34.2657 37.1887 34.3379 37.3631 34.4664 37.4916C34.5949 37.6201 34.7693 37.6923 34.9511 37.6923H40.4336C40.6153 37.6923 40.7897 37.6201 40.9182 37.4916C41.0467 37.3631 41.1189 37.1887 41.1189 37.007V30.1538C41.1189 29.9721 41.0467 29.7977 40.9182 29.6692C40.7897 29.5407 40.6153 29.4685 40.4336 29.4685ZM39.7483 36.3217H35.6364V30.8391H39.7483V36.3217Z" fill="#C2B395"/>
<path d="M19.8741 29.4685H14.3916C14.0132 29.4685 13.7063 29.7754 13.7063 30.1538V37.007C13.7063 37.1887 13.7785 37.3631 13.907 37.4916C14.0355 37.6201 14.2099 37.6923 14.3916 37.6923H19.8741C20.0559 37.6923 20.2302 37.6201 20.3587 37.4916C20.4872 37.3631 20.5594 37.1887 20.5594 37.007V30.1538C20.5594 29.9721 20.4872 29.7977 20.3587 29.6692C20.2302 29.5407 20.0559 29.4685 19.8741 29.4685ZM19.1888 36.3217H15.0769V30.8391H19.1888V36.3217Z" fill="#C2B395"/>
<path d="M40.7797 13.4236L28.3658 6.59521C27.7728 6.26693 27.0526 6.26693 26.4597 6.59521L14.0497 13.423C13.5338 13.7069 13.1716 14.2059 13.0612 14.7841C12.9507 15.3624 13.1034 15.9599 13.4782 16.4139C13.8526 16.8679 14.41 17.1317 14.9987 17.1332H26.7282V25.357H20.5603C20.1819 25.357 19.875 25.6638 19.875 26.0423C19.875 26.4207 20.1819 26.7276 20.5603 26.7276H23.9869V37.0073C23.9869 37.1891 24.0591 37.3634 24.1876 37.4919C24.3161 37.6204 24.4905 37.6926 24.6722 37.6926H30.1547C30.3365 37.6926 30.5108 37.6204 30.6393 37.4919C30.7678 37.3634 30.84 37.1891 30.84 37.0073V26.7276H34.2666C34.6451 26.7276 34.9519 26.4207 34.9519 26.0423C34.9519 25.6638 34.6451 25.357 34.2666 25.357H28.0988V17.1332H39.8282C40.4175 17.1332 40.9758 16.8704 41.3515 16.4164C41.7269 15.9624 41.8805 15.3645 41.7701 14.7857C41.6599 14.2069 41.2971 13.7075 40.7806 13.4236L40.7797 13.4236ZM29.4685 36.3217H25.3566V26.7273H29.4685V36.3217ZM39.8274 15.7623H14.9978C14.7216 15.7617 14.4805 15.5741 14.4116 15.3061C14.3428 15.0384 14.4633 14.7579 14.7053 14.6239L27.1201 7.79611C27.2094 7.74654 27.3101 7.72084 27.4126 7.72084C27.5148 7.72084 27.6154 7.74654 27.7051 7.79549L40.1198 14.6239C40.3618 14.7579 40.4824 15.0384 40.4135 15.3061C40.3447 15.5742 40.1036 15.7617 39.8274 15.7623V15.7623Z" fill="#C2B395"/>
</g>
<defs>
<clipPath id="clip0_288_3534">
<rect width="54.8056" height="42" fill="white"/>
</clipPath>
</defs>
</svg>
