<svg width="48" height="38" viewBox="0 0 48 38" fill="none" xmlns="http://www.w3.org/2000/svg">
<g clip-path="url(#clip0_288_3412)">
<path d="M23.5815 3.77307C15.26 3.77307 8.48935 10.5437 8.48935 18.8653V33.5802C8.48935 33.7886 8.65805 33.9576 8.86676 33.9576H38.2966C38.505 33.9576 38.674 33.7889 38.674 33.5802L38.6737 18.8653C38.6737 10.5437 31.9031 3.77307 23.5815 3.77307H23.5815ZM9.24396 18.8653C9.24396 11.0861 15.4728 4.73857 23.2042 4.53711V33.2029H9.24396V18.8653ZM37.9191 33.2029H23.9589V4.53711C31.6902 4.73845 37.9191 11.0857 37.9191 18.8653V33.2029Z" fill="#C2B395" stroke="#C2B395" stroke-width="0.6"/>
<path d="M30.1857 30.053C30.2594 30.1267 30.356 30.1636 30.4526 30.1636C30.5492 30.1636 30.6458 30.1267 30.7195 30.053L34.8062 25.9663C34.9536 25.8189 34.9536 25.5802 34.8062 25.4328C34.6588 25.2854 34.4201 25.2854 34.2727 25.4328L30.1857 29.5193C30.0383 29.6667 30.0383 29.9056 30.1857 30.053L30.1857 30.053Z" fill="#C2B395" stroke="#C2B395" stroke-width="0.6"/>
<path d="M33.0398 30.8286C33.1135 30.9022 33.2098 30.9391 33.3064 30.9391C33.403 30.9391 33.4996 30.9022 33.5733 30.8286L35.5817 28.8204C35.729 28.673 35.729 28.4343 35.5817 28.2869C35.4343 28.1395 35.1956 28.1395 35.0482 28.2869L33.0398 30.2951C32.8924 30.4425 32.8924 30.6812 33.0398 30.8286H33.0398Z" fill="#C2B395" stroke="#C2B395" stroke-width="0.6"/>
</g>
<defs>
<clipPath id="clip0_288_3412">
<rect width="47.1463" height="38" fill="white"/>
</clipPath>
</defs>
</svg>
