<svg width="41" height="37" viewBox="0 0 41 37" fill="none" xmlns="http://www.w3.org/2000/svg">
<g clip-path="url(#clip0_288_3577)">
<path d="M36.4279 17.9172L34.5276 16.0174C34.4873 15.9505 34.4315 15.8945 34.3642 15.8542L20.6555 2.14556C20.6535 2.14329 20.6517 2.14057 20.6496 2.13876C20.5574 2.04625 20.4363 1.99977 20.3145 2C20.1935 1.99977 20.0722 2.04625 19.9792 2.13899C19.9772 2.14103 19.976 2.14352 19.974 2.14579L6.19514 15.9241C6.19446 15.925 6.1931 15.9261 6.19242 15.927L4.20172 17.9175C4.01693 18.1023 4.01693 18.4025 4.20172 18.587C4.29399 18.6793 4.41507 18.7255 4.53659 18.7255C4.65812 18.7255 4.77897 18.6793 4.87147 18.587L6.05526 17.4032V34.0314C6.05526 34.2928 6.26703 34.5046 6.52845 34.5046C6.78942 34.5046 7.00163 34.2924 7.00163 34.0314V16.4565L20.315 3.14377L33.6486 16.4769V34.0308C33.6486 34.2923 33.8604 34.504 34.1218 34.504C34.3833 34.504 34.595 34.2918 34.595 34.0308L34.5948 17.4241L35.7581 18.587C35.8504 18.6793 35.9715 18.7255 36.093 18.7255C36.2134 18.7255 36.3354 18.6793 36.4279 18.587C36.6127 18.4022 36.6127 18.1025 36.4279 17.9175L36.4279 17.9172Z" fill="#C2B395" stroke="#C2B395" stroke-width="0.4"/>
<path d="M9.9805 21.6887V34.4791H30.6508L30.6506 30.5302V17.7392H9.98027L9.9805 21.6887ZM29.7041 33.5324H10.9272V30.5344H29.7041V33.5324ZM29.7041 26.5847V29.5827H10.9272V26.5847H29.7041ZM29.7041 22.6353V25.6331H10.9272V22.6353H29.7041ZM10.9272 18.6856H29.7041V21.6834H10.9272V18.6856Z" fill="#C2B395" stroke="#C2B395" stroke-width="0.4"/>
</g>
<defs>
<clipPath id="clip0_288_3577">
<rect width="41" height="37" fill="white"/>
</clipPath>
</defs>
</svg>
