<svg width="38" height="39" viewBox="0 0 38 39" fill="none" xmlns="http://www.w3.org/2000/svg">
<g clip-path="url(#clip0_281_1823)">
<path d="M34.0123 6.89403H3.52537C3.26204 6.89403 3.00947 6.79098 2.82299 6.60693C2.63651 6.42315 2.53133 6.17343 2.53081 5.91283V3.98436C2.53107 3.72348 2.63572 3.47324 2.82219 3.28866C3.00893 3.1041 3.26177 3.00027 3.52538 3H34.0123C34.2756 3.00078 34.5276 3.10487 34.7136 3.28944C34.8995 3.474 35.0036 3.72398 35.0034 3.98434V5.91281C35.0034 6.17291 34.899 6.42263 34.7131 6.60665C34.5274 6.79043 34.275 6.89401 34.0122 6.89401L34.0123 6.89403ZM3.52537 3.67703C3.44249 3.67599 3.36302 3.70818 3.30453 3.76607C3.24578 3.82395 3.21352 3.90287 3.2143 3.9849V5.91337V5.91311C3.21483 5.99436 3.24787 6.07197 3.3061 6.12908C3.36459 6.18619 3.44327 6.21812 3.52536 6.2176H34.0122C34.1822 6.2176 34.3199 6.08131 34.3199 5.91311V3.98464V3.9849C34.3207 3.81591 34.183 3.67807 34.0122 3.67703H3.52537Z" fill="#C2B395" stroke="#C2B395" stroke-width="0.5"/>
<path d="M34.0123 34.906H3.52538C3.26205 34.906 3.00974 34.8029 2.82326 34.6189C2.63679 34.4351 2.53161 34.1854 2.53082 33.9248V31.9963V31.9966C2.53109 31.7354 2.63573 31.4852 2.82221 31.3006C3.00895 31.1161 3.26179 31.0122 3.5254 31.012H34.0123C34.2756 31.0127 34.5277 31.1168 34.7136 31.3014C34.8995 31.486 35.0037 31.7359 35.0034 31.9966V33.925V33.9248C35.0034 34.1851 34.899 34.4346 34.7131 34.6186C34.5274 34.8027 34.2751 34.906 34.0122 34.906L34.0123 34.906ZM3.52538 31.6887C3.4425 31.6877 3.36302 31.7199 3.30454 31.7778C3.24579 31.8357 3.21352 31.9146 3.21431 31.9966V33.9251V33.9248C3.21536 34.0938 3.35463 34.2301 3.52537 34.2293H34.0123C34.1822 34.2293 34.3199 34.093 34.3199 33.9248V31.9963V31.9966C34.3207 31.8276 34.183 31.6898 34.0123 31.6887H3.52538Z" fill="#C2B395" stroke="#C2B395" stroke-width="0.5"/>
<path d="M33.0044 31.6889H4.53118C4.34234 31.6889 4.18916 31.5373 4.18916 31.3504V6.56604C4.18916 6.37914 4.34233 6.22754 4.53118 6.22754H33.0044H33.0042C33.0949 6.22754 33.1817 6.26336 33.246 6.3267C33.31 6.3903 33.3462 6.47622 33.3462 6.56604V31.3504V31.3502C33.3462 31.5371 33.193 31.6887 33.0042 31.6887L33.0044 31.6889ZM4.87293 31.0122H32.6627V6.90427H4.87293V31.0122Z" fill="#C2B395" stroke="#C2B395" stroke-width="0.5"/>
<path d="M29.928 31.6856H7.60699C7.41815 31.6856 7.26524 31.534 7.26524 31.3471V20.6568C7.26524 17.6375 8.47697 14.7419 10.6342 12.6073C12.7912 10.4722 15.7169 9.27295 18.7672 9.27295C21.8176 9.27295 24.7435 10.4722 26.9002 12.6073C29.0575 14.7421 30.2692 17.6377 30.2692 20.6568V31.3471C30.2692 31.4369 30.2333 31.5231 30.169 31.5864C30.105 31.6498 30.0182 31.6856 29.9274 31.6856H29.928ZM7.94942 31.0089H29.5862V20.6568C29.5862 16.8313 27.5242 13.2964 24.1768 11.3839C20.8296 9.47103 16.7058 9.47103 13.3587 11.3839C10.0113 13.2965 7.94928 16.8313 7.94928 20.6568L7.94942 31.0089Z" fill="#C2B395" stroke="#C2B395" stroke-width="0.5"/>
<path d="M20.1513 31.7096H16.4432C16.1529 31.7116 15.8651 31.6579 15.5955 31.5517C14.3922 31.071 11.5958 29.5109 11.5308 25.4152C11.5266 25.1086 11.5399 24.8023 11.5709 24.4975C11.734 22.9465 12.3005 21.4641 13.2151 20.1941C13.6895 19.5304 14.1212 18.8832 14.4989 18.2699C15.4659 16.6859 16.0259 15.4129 16.1628 14.4875V14.4877C16.1638 14.4696 16.1657 14.4511 16.1686 14.4332C16.178 14.3803 16.1838 14.3268 16.1864 14.2733C16.1916 14.1986 16.1956 14.1381 16.1956 14.0812V13.9958C16.1895 13.7409 16.3225 13.5024 16.5436 13.3713C16.7589 13.2415 17.0288 13.2397 17.246 13.3661C18.005 13.8024 18.6783 14.3704 19.2333 15.0432C19.2881 15.1068 19.3416 15.1738 19.3946 15.2408C19.463 15.3231 19.5171 15.3981 19.5727 15.4736C19.6235 15.5359 19.6794 15.6154 19.7348 15.6945C19.799 15.7804 19.8585 15.8697 19.9134 15.9619C20.0101 16.1023 20.1185 16.2807 20.2347 16.4883C20.3419 16.6765 20.4508 16.8769 20.5546 17.0874C20.706 17.3979 20.8376 17.7047 20.957 18.0266C21.0134 18.165 21.0676 18.3124 21.1227 18.4697C21.1626 18.5845 21.203 18.7065 21.2389 18.8308C21.2895 18.985 21.3391 19.1563 21.3884 19.3383C21.4167 19.4302 21.4424 19.5314 21.4676 19.6381C21.5154 19.8167 21.5602 20.0132 21.6003 20.21C21.6229 20.3045 21.6434 20.4099 21.6636 20.5204C21.7252 20.814 21.7797 21.1372 21.8246 21.4721C21.8862 21.9201 21.934 22.3855 21.9678 22.859H21.9675C22.3822 22.6111 22.6849 22.215 22.8129 21.7524C22.8643 21.5987 22.9052 21.442 22.9356 21.2828C22.9589 21.1725 22.9765 21.051 22.9951 20.9259C23.0022 20.8582 23.0117 20.7696 23.0159 20.6814L23.0303 20.4278C23.0426 20.1155 23.2606 19.8484 23.5664 19.7708C23.8648 19.6898 24.1814 19.8162 24.3396 20.0797C24.3918 20.1656 24.434 20.2354 24.4762 20.3094C24.5662 20.4592 24.6601 20.6258 24.7543 20.8023C24.7821 20.8511 24.8114 20.9085 24.8413 20.9672L24.8935 21.0687C24.9906 21.2605 25.0847 21.4614 25.1739 21.667C25.3171 21.985 25.444 22.31 25.5539 22.6409C25.672 22.9914 25.7682 23.3485 25.8424 23.7107C26.3298 26.0664 25.7378 28.0577 24.0831 29.6264C23.1995 30.4272 22.1816 31.0697 21.075 31.5244L21.0032 31.5532H21.0034C20.8972 31.595 20.7884 31.629 20.6772 31.6547C20.5046 31.6926 20.3281 31.7111 20.1513 31.7095L20.1513 31.7096ZM16.8448 14.5361C16.8445 14.5462 16.8437 14.556 16.8424 14.5662C16.6968 15.5837 16.1049 16.9481 15.0833 18.6221C14.6967 19.2493 14.2564 19.9094 13.7738 20.5843C12.9276 21.7581 12.4031 23.129 12.2515 24.5635C12.2229 24.8428 12.2106 25.1234 12.2145 25.4042C12.273 29.0958 14.7764 30.4947 15.8497 30.925C16.038 30.9985 16.2389 31.0351 16.4414 31.0333H20.1513C20.3609 31.0353 20.5689 30.9967 20.7635 30.9196L20.8256 30.8952C21.8493 30.472 22.7917 29.8768 23.6105 29.136C25.084 27.7384 25.6098 25.9576 25.1727 23.8428C25.1034 23.5069 25.0137 23.1754 24.9044 22.8501C24.801 22.5399 24.6817 22.2349 24.5471 21.9367C24.4616 21.7397 24.3735 21.5515 24.2854 21.3765L24.2306 21.2714C24.2049 21.221 24.1797 21.1699 24.1527 21.1234C24.0606 20.9505 23.9725 20.794 23.8844 20.6471C23.8414 20.5715 23.8023 20.5077 23.7635 20.4441L23.7262 20.4316L23.7131 20.4654L23.6987 20.7177C23.6934 20.8171 23.6832 20.9188 23.6735 21.0107C23.6517 21.1621 23.631 21.2978 23.605 21.4167C23.5689 21.6044 23.5201 21.7892 23.4595 21.9707C22.9176 23.5404 21.7295 23.6481 21.6794 23.6517H21.6791C21.5873 23.6582 21.4968 23.6281 21.4273 23.5684C21.3581 23.5082 21.3164 23.4228 21.3117 23.3317C21.2794 22.7227 21.2238 22.1272 21.1462 21.5595C21.1032 21.2394 21.0515 20.9326 20.9917 20.646C20.9723 20.5391 20.9542 20.4451 20.9316 20.3514C20.892 20.1565 20.8506 19.9735 20.8042 19.7993C20.7795 19.6978 20.7572 19.6087 20.7302 19.5205C20.6814 19.3411 20.6347 19.1802 20.5836 19.0239C20.5495 18.899 20.5117 18.7916 20.4758 18.689C20.4247 18.5416 20.3732 18.4038 20.3182 18.2664C20.2025 17.957 20.079 17.6699 19.9387 17.3808C19.8416 17.1837 19.7391 16.995 19.6368 16.8159C19.529 16.623 19.4317 16.4623 19.3346 16.3209H19.3349C19.2893 16.2438 19.2397 16.169 19.1864 16.0969C19.1256 16.0102 19.0797 15.944 19.0301 15.8827C18.9711 15.8033 18.921 15.7358 18.8667 15.6688C18.8124 15.6018 18.7621 15.5372 18.7109 15.4777C18.2074 14.8657 17.596 14.3486 16.9067 13.9516C16.8986 13.9485 16.8776 13.9537 16.8787 13.9828V14.082C16.8787 14.1531 16.874 14.2284 16.8692 14.3047C16.8637 14.3885 16.8574 14.4628 16.8448 14.536L16.8448 14.5361Z" fill="#C2B395" stroke="#C2B395" stroke-width="0.5"/>
<path d="M18.507 29.9399H16.7636C16.6039 29.941 16.4455 29.9111 16.2973 29.8524C15.6883 29.6069 15.1687 29.184 14.8078 28.6399C14.4466 28.0961 14.2612 27.4563 14.2754 26.8055C14.2683 25.8878 14.5576 24.9918 15.101 24.2481C15.9898 23.0013 16.4874 21.9815 16.4682 21.4514V21.4511C16.4612 21.265 16.5561 21.0895 16.7166 20.9924C16.874 20.8992 17.0696 20.8964 17.2294 20.9854C17.8297 21.3208 19.1925 22.3823 19.5054 25.2029L19.5056 25.2026C19.6213 24.9705 19.68 24.7146 19.6764 24.4558C19.6827 24.2289 19.8406 24.0337 20.0627 23.9777C20.2809 23.92 20.5112 24.0124 20.6274 24.204C21.0609 24.9087 21.7242 26.2913 21.2965 27.6329C20.9975 28.5697 20.229 29.3113 19.0125 29.8375H19.0123C18.8525 29.9053 18.6805 29.9403 18.5069 29.94L18.507 29.9399ZM17.1313 21.727C17.0049 22.5935 16.2808 23.7639 15.6582 24.6364C15.1986 25.2632 14.9534 26.0189 14.9579 26.7935C14.9379 27.3119 15.0806 27.8235 15.366 28.2586C15.6516 28.6936 16.0657 29.0306 16.5522 29.2235C16.6191 29.2494 16.6905 29.2624 16.7623 29.2616H18.5057H18.5054C18.5857 29.2622 18.6652 29.2466 18.7391 29.2157C19.7646 28.771 20.4075 28.1693 20.6443 27.4274C20.9178 26.5703 20.6181 25.6539 20.2957 25.0079C20.0599 26.0786 19.2741 26.1493 19.2361 26.1521H19.2359C19.1446 26.1584 19.0541 26.1283 18.9851 26.0686C18.9159 26.0081 18.8742 25.9229 18.8695 25.8316C18.7336 23.272 17.7422 22.1668 17.1314 21.727L17.1313 21.727Z" fill="#C2B395" stroke="#C2B395" stroke-width="0.5"/>
</g>
<defs>
<clipPath id="clip0_281_1823">
<rect width="38" height="39" fill="white"/>
</clipPath>
</defs>
</svg>
