<svg width="40" height="31" viewBox="0 0 40 31" fill="none" xmlns="http://www.w3.org/2000/svg">
<g clip-path="url(#clip0_288_3102)">
<path d="M33.041 4.79455L24.4533 1.93199H24.1528L15.7129 4.74684L7.27787 1.93199C7.13197 1.88279 6.97138 1.90686 6.84657 1.99674C6.72154 2.08662 6.64764 2.23124 6.64806 2.38523V25.2857C6.64764 25.4908 6.7782 25.6734 6.97244 25.739L15.5601 28.6015C15.6562 28.6328 15.7599 28.6328 15.856 28.6015L24.3008 25.7867L32.7358 28.5968C32.7848 28.6145 32.8363 28.6243 32.8885 28.6254C33.015 28.6254 33.1364 28.5751 33.2259 28.4856C33.3153 28.3962 33.3656 28.2748 33.3656 28.1483V5.24779C33.366 5.04268 33.2355 4.86015 33.0412 4.79455L33.041 4.79455ZM7.60239 3.0485L15.2359 5.59138V27.4853L7.60239 24.9425V3.0485ZM16.1901 5.59138L23.8236 3.0485V24.9425L16.1901 27.4853V5.59138ZM32.4112 27.4853L24.7778 24.9425V3.0485L32.4112 5.59138V27.4853Z" fill="#C2B395" stroke="#C2B395" stroke-width="0.4"/>
</g>
<defs>
<clipPath id="clip0_288_3102">
<rect width="38.1538" height="31" fill="white" transform="translate(0.923077)"/>
</clipPath>
</defs>
</svg>
