<svg width="22" height="20" viewBox="0 0 22 20" fill="none" xmlns="http://www.w3.org/2000/svg">
<g clip-path="url(#clip0_291_4604)">
<path d="M10.6247 18.3192C10.5538 18.3192 10.4833 18.292 10.4298 18.2382L2.55411 10.3273C2.48846 10.2615 2.4606 10.1667 2.48011 10.0757C2.49962 9.9848 2.56381 9.90969 2.65082 9.87656C2.68788 9.86232 6.40017 8.41295 10.0125 4.48534C10.0633 4.43011 10.1344 4.39796 10.2095 4.39649C10.2835 4.39612 10.3568 4.42422 10.4098 4.47749L16.4595 10.5545C16.5329 10.6282 16.5584 10.737 16.5253 10.8358C15.2515 14.6436 10.9779 18.1127 10.7967 18.2585C10.7461 18.299 10.6852 18.3191 10.6245 18.3191L10.6247 18.3192ZM3.23094 10.2277L10.6417 17.6717C11.4747 16.9617 14.8167 13.9736 15.949 10.8205L10.2219 5.06768C7.22575 8.25309 4.26834 9.76112 3.23125 10.2277H3.23094Z" fill="#C2B395" stroke="#C2B395"/>
<path d="M15.1928 13.2313C15.1221 13.2313 15.0518 13.2043 14.998 13.1503L8.37336 6.49607C8.26635 6.38844 8.26672 6.21442 8.37422 6.10741C8.48173 6.00039 8.65587 6.00064 8.76301 6.10826L15.3874 12.7625C15.4944 12.8701 15.494 13.0441 15.3865 13.1511C15.333 13.2046 15.2629 13.2313 15.1927 13.2313L15.1928 13.2313Z" fill="#C2B395" stroke="#C2B395"/>
<path d="M13.987 8.73554C13.905 8.73554 13.8241 8.69909 13.77 8.62951C13.6767 8.50973 13.6982 8.33705 13.8181 8.24367L18.3457 4.71801C18.8139 4.35351 19.0442 3.76236 18.9468 3.17514C18.8338 2.49439 18.3027 1.96067 17.6257 1.84738C17.0425 1.75018 16.4544 1.9809 16.0919 2.45069L12.5816 6.99835C12.4888 7.11874 12.3159 7.14083 12.196 7.04793C12.0757 6.95515 12.0537 6.78248 12.1464 6.66234L15.6561 2.11468C16.1427 1.48401 16.9321 1.17402 17.7158 1.30496C18.6248 1.45702 19.3372 2.17249 19.4885 3.08507C19.6191 3.87123 19.3103 4.66307 18.6829 5.15161L14.1554 8.67726C14.1054 8.71653 14.0459 8.73544 13.9869 8.73544L13.987 8.73554Z" fill="#C2B395" stroke="#C2B395"/>
</g>
<defs>
<clipPath id="clip0_291_4604">
<rect width="22" height="20" fill="white"/>
</clipPath>
</defs>
</svg>
