<svg width="22" height="20" viewBox="0 0 22 20" fill="none" xmlns="http://www.w3.org/2000/svg">
<path d="M10.9961 16.8008C10.6646 16.8008 10.333 16.7019 10.0503 16.504L5.65192 13.4251C5.21097 13.1167 4.94823 12.6114 4.94823 12.0736V3.50548C4.94823 2.80669 5.39137 2.18105 6.05004 1.94846C9.23607 0.822968 12.7498 0.822968 15.9349 1.94576C16.5984 2.17943 17.0444 2.80679 17.0444 3.5067V12.0733C17.0444 12.6109 16.781 13.1163 16.3407 13.4247L11.9423 16.5036C11.6597 16.7016 11.3282 16.8005 10.9966 16.8005L10.9961 16.8008ZM10.9961 2.19962C9.43293 2.19962 7.89188 2.46348 6.41636 2.9853C6.19644 3.06336 6.04793 3.27236 6.04793 3.50542V12.0729C6.04793 12.2521 6.13531 12.4204 6.2827 12.5232L10.6811 15.6021C10.8703 15.734 11.1226 15.734 11.3112 15.6021L15.7096 12.5232C15.857 12.4204 15.9444 12.2521 15.9444 12.0729V3.50636C15.9444 3.2722 15.7937 3.06099 15.5689 2.98185C14.0948 2.46224 12.5565 2.19887 10.9961 2.19887L10.9961 2.19962ZM10.8382 10.5818L13.5873 7.7833C13.8006 7.56669 13.7972 7.21864 13.5806 7.00585C13.3629 6.79255 13.0155 6.79586 12.8032 7.01296L10.4484 9.40951L9.19154 8.11477C8.97935 7.89706 8.63131 7.89153 8.41409 8.10323C8.19637 8.31493 8.19085 8.66296 8.40255 8.88069L10.052 10.5795C10.1553 10.6857 10.2967 10.7456 10.4451 10.7461H10.4467C10.5945 10.7461 10.7353 10.6867 10.8386 10.5816L10.8382 10.5818Z" fill="#C2B395" stroke="#C2B395" stroke-width="0.7"/>
</svg>
